<svg width="275" height="204" viewBox="0 0 275 204" fill="none" xmlns="http://www.w3.org/2000/svg">
<path d="M249 203H191V201.128C191 199.503 191.614 197.944 192.707 196.795C193.799 195.646 195.281 195 196.827 195H243.173C244.719 195 246.201 195.646 247.293 196.795C248.386 197.944 249 199.503 249 201.128V203Z" fill="#E6E6E6"/>
<path d="M218.798 196L220.577 195.284C201.955 149.108 203.749 90.8527 219.491 40.8801C221.361 35.0901 221.496 28.8803 219.879 23.0147C218.262 17.1491 214.964 11.8835 210.391 7.8659C201.254 -0.279484 188.657 -2.26377 177.515 2.68688C166.516 7.57434 165 16.0876 165 24.5594H166.919C166.919 15.5162 168.853 8.63364 178.295 4.43833C188.738 -0.201329 200.547 1.65964 209.113 9.29632C213.409 13.0697 216.507 18.0153 218.025 23.5245C219.544 29.0337 219.417 34.8662 217.661 40.3045C201.737 90.8541 200.048 149.509 218.798 196Z" fill="#E6E6E6"/>
<path d="M166.5 53C170.09 53 173 49.866 173 46C173 42.134 170.09 39 166.5 39C162.91 39 160 42.134 160 46C160 49.866 162.91 53 166.5 53Z" fill="#FBB724"/>
<path d="M155.875 57.8616V45H158.125V57.8616C158.77 58.0936 159.305 58.518 159.637 59.0619C159.969 59.6058 160.078 60.2354 159.945 60.8428C159.812 61.4503 159.445 61.9977 158.908 62.3912C158.371 62.7848 157.696 63 157 63C156.304 63 155.629 62.7848 155.092 62.3912C154.555 61.9977 154.188 61.4503 154.055 60.8428C153.922 60.2354 154.031 59.6058 154.363 59.0619C154.695 58.518 155.23 58.0936 155.875 57.8616Z" fill="#E6E6E6"/>
<path d="M147 35C147.003 32.0836 148.158 29.2877 150.212 27.2255C152.265 25.1633 155.049 24.0033 157.952 24H176.048C178.952 24 181.738 25.1589 183.792 27.2218C185.846 29.2847 187 32.0826 187 35C187 37.9174 185.846 40.7153 183.792 42.7782C181.738 44.8411 178.952 46 176.048 46H157.952C155.049 45.9967 152.265 44.8367 150.212 42.7745C148.158 40.7123 147.003 37.9164 147 35Z" fill="#1B3F71"/>
<path d="M121.255 103.735C123.079 80.4442 132.402 69.3474 126.432 62.3885C120.714 55.7227 104.606 57.0997 94.2613 63.496C66.3594 80.7484 56.1372 149.509 92.0427 183.105C126.162 215.028 190.825 204.804 205.195 178.675C208.548 172.578 211.212 161.89 206.304 155.417C194.121 139.347 149.825 168.454 130.13 150.249C118.458 139.46 120.255 116.516 121.255 103.735Z" fill="#3F3D56"/>
<path d="M142.137 92.2492C141.466 92.5452 140.942 93.0806 140.676 93.7415C140.41 94.4024 140.424 95.1367 140.714 95.788C140.775 95.9195 140.848 96.0459 140.931 96.166L135 103.759L137.959 108L144.911 96.7564C145.404 96.3881 145.755 95.8739 145.911 95.2939C146.066 94.7139 146.017 94.1009 145.772 93.5504C145.628 93.2384 145.423 92.9565 145.166 92.7208C144.909 92.4851 144.607 92.3002 144.275 92.1766C143.944 92.0531 143.591 91.9932 143.236 92.0006C142.88 92.008 142.53 92.0824 142.205 92.2196C142.182 92.2291 142.159 92.239 142.137 92.2492Z" fill="#FFB6B6"/>
<path d="M141.758 105.506C142.146 105.86 141.069 106.297 139.93 105.608C139.604 105.408 139.465 105.325 139.428 105.378C139.337 105.509 139.871 106.482 139.729 108.642C139.641 109.932 137.56 112.356 135.197 114.719C132.002 117.916 128.288 121 128.288 121L126.984 119.926L113.308 108.642L111 105.355C111.211 104.057 111.529 102.779 111.949 101.536C112.528 99.8151 113.215 98.1352 114.008 96.507C114.433 95.6211 114.869 94.7766 115.286 94L122.613 102.309L128.753 109.268C128.753 109.268 130.541 106.305 131.925 105.498C132.102 105.382 132.303 105.311 132.512 105.291C133.911 105.223 133.995 104.439 132.372 102.731C130.75 101.023 132.797 102.618 134.241 102.158C135.684 101.698 134.241 102.158 134.545 101.008C134.849 99.8584 138.897 97.5512 138.897 97.5512L139.065 97.7058L142.124 100.484L143 101.28C143 101.28 142.044 103.979 141.78 104.548C141.516 105.117 141.373 105.148 141.758 105.506Z" fill="#1B3F71"/>
<path d="M223.848 157L224 153.292L208.224 151L208 156.472L223.848 157Z" fill="#FFB6B6"/>
<path d="M221.142 158.761L221 151.935L223.674 152.043L227.99 145.733C228.203 145.421 228.502 145.192 228.843 145.079C229.184 144.966 229.549 144.974 229.885 145.104C230.221 145.233 230.51 145.476 230.711 145.798C230.911 146.12 231.012 146.503 230.999 146.891L230.725 155L228.033 156.291L230.659 156.943L230.556 160L221.142 158.761Z" fill="#2F2E41"/>
<path d="M135 158.502L184.824 159.769C184.824 159.769 206.34 161.015 211.388 157.721L216.711 157.047L217 149.204C217 149.204 213.745 149.228 211.873 148.353C210.002 147.479 211.302 146.408 209.518 147.461C207.733 148.513 207.922 148.64 206.542 148.156C205.163 147.672 141.896 138 141.896 138L135 158.502Z" fill="#2F2E41"/>
<path d="M201.12 155L204 152.185L194.25 140L190 144.155L201.12 155Z" fill="#FFB6B6"/>
<path d="M198 152.714L202.393 148L204.397 149.904L211.911 148.592C212.282 148.527 212.665 148.577 213.004 148.734C213.344 148.891 213.621 149.147 213.797 149.464C213.972 149.782 214.037 150.145 213.98 150.5C213.923 150.854 213.749 151.183 213.482 151.437L207.92 156.733L204.979 155.763L206.587 158.003L204.489 160L198 152.714Z" fill="#2F2E41"/>
<path d="M116 131.703L116.494 143.019C117.076 156.34 131.964 164.402 143.509 157.447C143.721 157.319 143.935 157.186 144.149 157.048C144.149 157.048 148.526 155.89 148.393 154.056C148.26 152.222 149.329 151.329 150.275 151.83C151.222 152.33 163.61 135.005 163.61 135.005C163.61 135.005 189.35 147.657 195.028 150.635C195.028 150.635 200.367 142.41 199.98 142.496C199.593 142.582 168.137 120.888 168.137 120.888C168.137 120.888 163.012 115.778 156.656 119.152C156.523 119.648 156.636 119.665 156.636 119.665L135.637 136.525L132.67 130.973L116 131.703Z" fill="#2F2E41"/>
<path d="M135.967 117.291C135.927 117.825 135.85 118.356 135.738 118.881C135.584 119.639 135.336 120.376 135 121.075C135 121.075 134.999 121.854 133.493 124.466C131.987 127.078 133.87 125.959 135 127.899C136.129 129.836 134.999 128.944 133.746 130.19C133.385 130.553 133.128 131.005 133.003 131.499C132.878 131.993 132.888 132.511 133.034 133C133.034 133 116.857 133.011 113.844 131.892C110.832 130.772 110.146 124.466 112.846 123.843C115.543 123.22 112.029 122.601 110.444 121.164C108.859 119.728 112.029 117.377 112.029 117.377C112.029 117.377 110.723 115.142 110.832 107.638C110.847 106.948 110.911 106.26 111.024 105.578C111.241 104.293 111.567 103.029 111.999 101.799C112.594 100.095 113.301 98.4325 114.115 96.8209C114.552 95.944 115 95.1082 115.43 94.3396C115.497 94.2202 115.561 94.1045 115.629 93.9888C116.446 92.556 117.192 91.3843 117.685 90.6343C118.065 90.0523 118.295 89.7239 118.295 89.7239L121.037 85L130.187 89.25L129.667 96.2015L131.245 101.444L131.972 103.858L132.533 105.72L133.399 108.604C133.399 108.604 133.162 108.616 133.444 109C134.745 110.714 135.588 112.725 135.896 114.847C136.004 115.657 136.028 116.476 135.967 117.291Z" fill="#1B3F71"/>
<path d="M162 118L161.829 117.945L140 110.924L148.044 84.5681C148.204 84.0433 148.481 83.5616 148.855 83.1594C149.229 82.7572 149.689 82.4449 150.201 82.2462C150.713 82.0474 151.263 81.9674 151.811 82.012C152.358 82.0567 152.889 82.2249 153.362 82.504L167.311 90.7352C168.415 91.3861 169.255 92.4038 169.685 93.6104C170.114 94.8171 170.105 96.1361 169.659 97.3368L162 118Z" fill="#2F2E41"/>
<path d="M161.428 120L140 112.923L147.833 86.568C147.989 86.0432 148.259 85.5615 148.623 85.1594C148.987 84.7572 149.435 84.4449 149.934 84.2462C150.432 84.0474 150.969 83.9674 151.502 84.012C152.035 84.0567 152.551 84.2249 153.012 84.5039L167.245 91.7917C169.383 93.0869 169.333 96.4393 168.34 99.19L161.428 120Z" fill="#1B3F71"/>
<path d="M159.305 121.471C158.801 121.75 158.244 121.924 157.668 121.98C157.093 122.036 156.512 121.974 155.962 121.798L141.981 117.373C140.908 117.028 140.015 116.285 139.492 115.302C138.969 114.32 138.858 113.175 139.183 112.113L146.192 89.5118C146.332 89.0603 146.563 88.6408 146.87 88.278C147.177 87.9151 147.555 87.6161 147.981 87.3987C148.407 87.1812 148.874 87.0496 149.352 87.0115C149.831 86.9735 150.313 87.0298 150.769 87.1771L165.258 91.8526C165.948 92.0753 166.586 92.4318 167.134 92.9009C167.682 93.37 168.129 93.9422 168.448 94.5838C168.767 95.2254 168.952 95.9234 168.992 96.6364C169.032 97.3494 168.926 98.0631 168.681 98.7352L161.186 119.27C160.849 120.203 160.181 120.984 159.305 121.471Z" fill="#3F3D56"/>
<path d="M129.5 85C134.747 85 139 80.5228 139 75C139 69.4771 134.747 65 129.5 65C124.253 65 120 69.4771 120 75C120 80.5228 124.253 85 129.5 85Z" fill="#FFB6B6"/>
<path d="M95.6672 85.058C96.5855 86.7842 98.0911 88.1493 99.9287 88.9216C100.662 89.2457 101.433 89.4823 102.225 89.6265C102.449 88.7655 102.807 87.9427 103.288 87.1868C103.128 88.0388 103.128 88.9119 103.288 89.7639C104.494 89.8596 105.709 89.7135 106.854 89.3345C107.98 88.9633 109 88.3429 109.836 87.5224C110.671 86.702 111.297 85.7041 111.665 84.6079C112.462 82.0356 111.604 79.2882 111.536 76.6032C111.466 73.9179 112.781 70.7062 115.53 70.374C117.623 70.1205 117.364 70.3173 118.868 71.7514C116.764 74.018 121.893 84.0571 124.645 83.6135C126.201 83.3627 127.346 82.1646 127.654 82.2061C129.23 85.949 124.49 91.2574 128.249 93L127.97 92.642C126.002 89.4889 131.826 84.1635 129.858 81.0104C129.309 80.1284 128.738 79.0943 129.078 78.1185C129.4 77.1908 131.032 76.8972 131.376 77.7416C130.816 75.8062 132.378 73.5347 134.453 73.3372C136.296 73.1608 136.19 73.6703 137.947 74.1352C138.172 73.4009 138.496 72.6987 138.91 72.0466C138.77 72.7905 138.752 73.5513 138.859 74.3005C139.493 74.3739 140.134 74.2422 140.683 73.9261C142.306 72.9825 142.354 70.5469 141.239 69.0645C140.122 67.5819 138.251 66.8498 136.446 66.2959C136.43 62.594 126.159 60.8219 124.27 64.2636C124.076 61.4769 120.782 59.5997 117.945 60.073C115.107 60.5464 112.869 62.7529 111.504 65.2124C110.14 67.6698 109.462 70.4215 108.463 73.0391C107.465 75.6567 106.037 78.2668 103.645 79.8199C101.253 81.371 97.699 81.5119 95.7021 79.5014C95.2466 80.3599 95.0062 81.3103 95.0001 82.2757C94.9941 83.2411 95.2226 84.1943 95.6672 85.058Z" fill="#2F2E41"/>
<path d="M106.071 131.033C106.278 130.869 106.503 130.728 106.741 130.612C110.571 128.719 122.483 123.804 131.797 124.006C149.719 124.394 172.526 144.036 167.218 157.226C163.179 167.262 143.099 172.972 128.442 168.405C107.908 162.007 99.8026 135.997 106.071 131.033Z" fill="#3F3D56"/>
<path d="M32.3399 203.091C26.5301 201.991 21.3874 175.723 32.818 162.786C36.7342 158.354 41.6193 156.425 48.1173 154.63C85.5176 144.296 114.043 154.144 117.877 156.549C121.702 158.948 128.407 195.095 119.833 200.212C115.008 203.091 105.446 204.53 100.709 201.171C93.7374 196.229 105.439 183.41 100.23 174.782C94.3204 164.99 63.1988 161.692 47.5958 171.423C30.9491 181.805 65.2856 209.328 32.3399 203.091Z" fill="#1B3F71"/>
<path d="M71.2635 159H48.5487C42.9413 153.492 38.9321 148.183 42.1419 143.776C42.1419 142.509 42.6328 141.295 43.5067 140.399C44.3805 139.503 45.5656 139 46.8014 139H73.0108C74.2466 139 75.4317 139.503 76.3055 140.399C77.1793 141.295 77.6702 142.509 77.6702 143.776C78.8923 148.797 76.709 153.873 71.2635 159Z" fill="#FBB724"/>
<path d="M67.2996 133.724C67.0914 133.734 66.8853 133.679 66.7092 133.566C66.5331 133.454 66.3955 133.289 66.3151 133.095C66.2347 132.901 66.2153 132.687 66.2597 132.481C66.304 132.275 66.4098 132.089 66.5629 131.946L66.6325 131.666C66.6234 131.644 66.6141 131.621 66.6049 131.599C66.3951 131.099 66.0436 130.672 65.5946 130.373C65.1456 130.074 64.619 129.916 64.0809 129.918C63.5429 129.92 63.0175 130.082 62.5707 130.385C62.1239 130.687 61.7755 131.116 61.5695 131.618C60.7459 133.62 59.6974 135.626 59.4392 137.743C59.3255 138.679 59.3734 139.628 59.5809 140.547C57.6466 136.288 56.6422 131.658 56.6357 126.972C56.6353 125.796 56.7 124.621 56.8296 123.452C56.9366 122.494 57.0851 121.543 57.2751 120.599C58.3119 115.475 60.5378 110.672 63.7702 106.585C65.3347 105.724 66.5999 104.398 67.3953 102.788C67.6835 102.21 67.8872 101.592 68 100.954C67.8235 100.978 67.3346 98.2643 67.4677 98.0978C67.2217 97.721 66.7815 97.5338 66.5129 97.1661C65.177 95.3377 63.3365 95.6569 62.3757 98.1416C60.3232 99.1874 60.3033 100.922 61.5627 102.59C62.364 103.651 62.4741 105.087 63.1771 106.223C63.1048 106.317 63.0296 106.407 62.9572 106.501C61.6351 108.217 60.4827 110.06 59.5166 112.003C59.7516 109.826 59.4712 107.624 58.6985 105.578C57.9155 103.671 56.4477 102.065 55.1552 100.416C53.6026 98.4356 50.419 99.2998 50.1455 101.81C50.1428 101.834 50.1402 101.859 50.1377 101.883C50.3297 101.992 50.5176 102.108 50.7015 102.231C50.9325 102.387 51.1115 102.61 51.215 102.87C51.3186 103.13 51.3418 103.416 51.2817 103.69C51.2216 103.964 51.081 104.213 50.8783 104.404C50.6755 104.596 50.4202 104.722 50.1456 104.764L50.1175 104.769C50.1859 105.467 50.3068 106.159 50.4791 106.839C48.821 113.313 52.4008 115.671 57.5123 115.777C57.6252 115.835 57.7351 115.894 57.848 115.949C56.8774 118.726 56.2686 121.618 56.0369 124.554C55.9057 126.285 55.9134 128.025 56.06 129.755L56.0513 129.694C55.681 127.77 54.6642 126.033 53.1726 124.778C50.9573 122.941 47.8275 122.265 45.4376 120.788C45.1836 120.623 44.8883 120.536 44.5864 120.535C44.2846 120.534 43.9888 120.621 43.7341 120.784C43.4793 120.947 43.2761 121.181 43.1485 121.457C43.0208 121.733 42.9741 122.04 43.0137 122.342C43.0169 122.364 43.0202 122.385 43.0235 122.407C43.3798 122.553 43.7266 122.722 44.0621 122.912C44.2541 123.021 44.442 123.138 44.6259 123.26C44.8569 123.416 45.0359 123.639 45.1394 123.899C45.2429 124.159 45.2662 124.445 45.2061 124.719C45.146 124.993 45.0054 125.242 44.8027 125.433C44.5999 125.625 44.3446 125.751 44.07 125.793L44.0419 125.798C44.0216 125.801 44.0042 125.804 43.984 125.807C44.5927 127.274 45.4471 128.624 46.5097 129.799C47.5465 135.45 51.9996 135.986 56.763 134.341H56.7659C57.2886 136.634 58.0458 138.865 59.0255 141H67.0973C67.1263 140.909 67.1523 140.816 67.1784 140.725C66.4312 140.773 65.6811 140.728 64.9448 140.591C65.5437 139.849 66.1426 139.102 66.7415 138.36C66.7548 138.346 66.7674 138.331 66.7791 138.316C67.0829 137.936 67.3896 137.559 67.6933 137.18L67.6935 137.179C67.7097 136.015 67.5771 134.854 67.2996 133.724Z" fill="#2BCECD"/>
<path d="M95.2172 157.617C95.3491 158.027 95.5993 158.381 95.9319 158.629C96.2644 158.878 96.6623 159.007 97.0682 159L104.999 158.782C105.408 158.774 105.803 158.624 106.126 158.356C106.449 158.088 106.681 157.716 106.789 157.296L107.912 144.501C108.31 144.693 108.743 144.788 109.18 144.779C109.947 144.758 110.675 144.414 111.204 143.821C111.732 143.229 112.018 142.437 111.999 141.619C111.98 140.801 111.657 140.025 111.101 139.462C110.545 138.898 109.802 138.593 109.035 138.614C108.86 138.613 108.686 138.632 108.515 138.671C108.33 138.457 108.104 138.287 107.853 138.171C107.601 138.055 107.33 137.997 107.056 138L94.8571 138.336C94.7559 138.34 94.6552 138.353 94.5561 138.376C94.2886 138.429 94.0349 138.543 93.812 138.709C93.5891 138.876 93.4023 139.091 93.2641 139.341C93.1258 139.591 93.0394 139.87 93.0107 140.158C92.9819 140.447 93.0114 140.738 93.0973 141.014L95.2172 157.617ZM108.142 143.632L108.94 140.583C109.031 140.231 109.033 139.86 108.946 139.506C108.985 139.506 109.019 139.487 109.058 139.486C109.606 139.475 110.135 139.695 110.531 140.098C110.926 140.502 111.156 141.056 111.169 141.64C111.181 142.224 110.977 142.789 110.599 143.212C110.222 143.635 109.702 143.881 109.155 143.896C108.801 143.908 108.451 143.817 108.142 143.632Z" fill="#CCCCCC"/>
<path d="M94 138.389C94.2788 140.026 97.413 141.178 101.182 140.977C104.647 140.813 107.481 139.563 108 138.082C107.808 138.023 107.608 137.996 107.408 138.001L94.3228 138.348C94.2142 138.352 94.1062 138.366 94 138.389Z" fill="white"/>
<path d="M0.435923 203.886L274.564 204C274.68 204 274.791 203.953 274.872 203.87C274.954 203.787 275 203.675 275 203.557C275 203.44 274.954 203.327 274.872 203.244C274.791 203.161 274.68 203.114 274.564 203.114L0.435923 203C0.320308 203 0.20943 203.047 0.127679 203.13C0.0459268 203.213 0 203.325 0 203.443C0 203.56 0.0459268 203.673 0.127679 203.756C0.20943 203.839 0.320308 203.886 0.435923 203.886Z" fill="#CACACA"/>
<path d="M154.174 106.003C153.438 106.031 152.741 106.355 152.232 106.906C151.723 107.458 151.442 108.193 151.449 108.956C151.453 109.111 151.469 109.265 151.497 109.417L143 114.61L144.028 120L154.925 111.584C155.526 111.414 156.055 111.042 156.431 110.527C156.806 110.013 157.006 109.384 157 108.739C156.993 108.372 156.916 108.01 156.774 107.674C156.632 107.338 156.427 107.034 156.172 106.78C155.916 106.526 155.615 106.326 155.285 106.192C154.955 106.058 154.602 105.993 154.248 106.001C154.223 106.001 154.199 106.002 154.174 106.003Z" fill="#FFB6B6"/>
<path d="M147.399 118.453C147.163 118.14 147.062 118.009 147.008 118.045C146.87 118.128 147.003 119.232 146.032 121.156C144.665 123.859 130.335 128 130.335 128L128.571 124.805L120.81 110.762L118.136 99.5067C118.042 99.1142 117.997 98.7121 118 98.3089C120.385 96.6485 122.918 95.2063 125.567 94C126.626 94.594 127.433 95.5452 127.84 96.6795L133.182 111.497L135.314 117.414C135.314 117.414 139.074 114.754 140.438 115.242C141.8 115.733 142.187 115.044 141.297 112.839C140.407 110.634 141.743 112.904 143.298 113.048C144.856 113.194 143.298 113.048 144.034 112.112C144.77 111.176 149.527 110.65 149.527 110.65L149.628 110.859L151.472 114.611L152 115.689C152 115.689 150.045 117.787 149.574 118.205C149.1 118.626 148.954 118.597 149.186 119.077C149.414 119.554 148.218 119.533 147.399 118.453Z" fill="#1B3F71"/>
</svg>
