<svg width="251" height="214" viewBox="0 0 251 214" fill="none" xmlns="http://www.w3.org/2000/svg">
<path d="M95.3893 183.41C96.298 183.41 97.0186 184.131 97.0186 184.977C97.0186 185.29 96.9246 185.635 96.8306 185.885L91.1282 204.34C90.8462 205.155 90.1882 205.593 89.311 205.593C88.4337 205.593 87.8384 205.155 87.5564 204.34L82.0733 189.489L76.5902 204.34C76.2769 205.155 75.6816 205.593 74.8043 205.593C73.927 205.593 73.269 205.155 73.0184 204.34L67.3159 185.885C67.2219 185.635 67.0966 185.29 67.0966 184.977C67.0966 184.131 67.8173 183.41 68.7572 183.41C69.5092 183.41 70.1985 183.849 70.3865 184.475L74.9296 200.11L80.538 184.507C80.8513 183.724 81.4153 183.41 82.0419 183.41C82.6999 183.41 83.2952 183.724 83.5772 184.507L89.217 200.11L93.7601 184.475C93.9481 183.849 94.6374 183.41 95.3893 183.41ZM101.699 186.073C100.791 186.073 100.007 185.321 100.007 184.413C100.007 183.504 100.791 182.752 101.699 182.752C102.608 182.752 103.391 183.504 103.391 184.413C103.391 185.321 102.608 186.073 101.699 186.073ZM101.699 189.05C102.608 189.05 103.36 189.802 103.36 190.742V203.933C103.36 204.873 102.608 205.625 101.699 205.625C100.791 205.625 100.039 204.873 100.039 203.933V190.742C100.039 189.802 100.791 189.05 101.699 189.05ZM112.557 188.956C114.813 188.956 116.756 189.865 117.758 191.4C117.946 191.682 118.197 192.026 118.197 192.559C118.197 193.342 117.601 193.812 116.85 193.812C116.348 193.812 115.878 193.593 115.408 192.966C114.782 192.183 113.904 191.65 112.62 191.65C111.053 191.65 110.113 192.434 110.113 193.562C110.113 194.345 110.552 195.097 112.212 195.567L114.155 196.1C116.818 196.82 118.823 198.011 118.823 200.643C118.823 203.933 115.722 205.593 112.463 205.593C109.737 205.593 107.826 204.403 107.011 203.118C106.855 202.899 106.353 202.272 106.353 201.52C106.353 200.862 106.761 200.173 107.638 200.173C108.359 200.173 108.735 200.611 109.048 201.081C109.831 202.397 111.116 202.836 112.463 202.836C114.28 202.836 115.534 202.084 115.534 200.831C115.534 199.891 114.876 199.201 113.309 198.763L111.21 198.199C108.171 197.353 106.855 195.724 106.855 193.593C106.855 190.648 109.518 188.956 112.557 188.956ZM130.722 188.987C133.762 188.987 136.738 190.899 136.738 196.225V203.933C136.738 204.841 136.018 205.593 135.109 205.593C134.2 205.593 133.448 204.841 133.448 203.933V196.225C133.448 193.092 131.662 191.838 129.626 191.838C126.618 191.838 125.302 194.533 125.114 195.88V203.933C125.114 204.841 124.362 205.593 123.453 205.593C122.545 205.593 121.793 204.841 121.793 203.933V184.726C121.793 183.817 122.545 183.066 123.453 183.066C124.362 183.066 125.114 183.817 125.114 184.726V192.81C125.271 191.713 127.151 188.987 130.722 188.987ZM143.809 203.933C143.809 204.841 143.057 205.593 142.149 205.593C141.24 205.593 140.488 204.841 140.488 203.933V184.726C140.488 183.817 141.24 183.066 142.149 183.066C143.057 183.066 143.809 183.817 143.809 184.726V203.933ZM149.248 186.073C148.339 186.073 147.556 185.321 147.556 184.413C147.556 183.504 148.339 182.752 149.248 182.752C150.157 182.752 150.94 183.504 150.94 184.413C150.94 185.321 150.157 186.073 149.248 186.073ZM149.248 189.05C150.157 189.05 150.909 189.802 150.909 190.742V203.933C150.909 204.873 150.157 205.625 149.248 205.625C148.339 205.625 147.587 204.873 147.587 203.933V190.742C147.587 189.802 148.339 189.05 149.248 189.05ZM160.106 188.956C162.362 188.956 164.304 189.865 165.307 191.4C165.495 191.682 165.745 192.026 165.745 192.559C165.745 193.342 165.15 193.812 164.398 193.812C163.897 193.812 163.427 193.593 162.957 192.966C162.33 192.183 161.453 191.65 160.168 191.65C158.602 191.65 157.662 192.434 157.662 193.562C157.662 194.345 158.1 195.097 159.761 195.567L161.704 196.1C164.367 196.82 166.372 198.011 166.372 200.643C166.372 203.933 163.27 205.593 160.012 205.593C157.286 205.593 155.375 204.403 154.56 203.118C154.403 202.899 153.902 202.272 153.902 201.52C153.902 200.862 154.309 200.173 155.187 200.173C155.907 200.173 156.283 200.611 156.596 201.081C157.38 202.397 158.664 202.836 160.012 202.836C161.829 202.836 163.082 202.084 163.082 200.831C163.082 199.891 162.424 199.201 160.858 198.763L158.758 198.199C155.719 197.353 154.403 195.724 154.403 193.593C154.403 190.648 157.066 188.956 160.106 188.956ZM175.929 202.585C176.712 202.46 177.276 202.961 177.276 203.745C177.276 205.029 175.803 205.593 174.049 205.593C172.169 205.593 170.32 204.935 170.32 201.332V191.807H169.13C168.315 191.807 167.782 191.274 167.782 190.46C167.782 189.677 168.315 189.144 169.13 189.144H170.32V186.7C170.32 185.823 171.072 185.071 171.949 185.071C172.858 185.071 173.61 185.823 173.61 186.7V189.144H175.897C176.712 189.144 177.276 189.677 177.276 190.46C177.276 191.274 176.712 191.807 175.897 191.807H173.61V201.363C173.61 202.303 173.986 202.742 174.707 202.742C175.114 202.742 175.584 202.617 175.929 202.585Z" fill="white"/>
<path d="M92.9232 155.15C92.0525 153.174 91.9568 150.968 92.6535 148.93C93.3502 146.893 94.7933 145.158 96.7222 144.041C97.3645 143.671 96.7773 142.712 96.1318 143.084C93.9194 144.335 92.2682 146.311 91.4907 148.638C90.7133 150.965 90.8636 153.481 91.9132 155.709C92.2083 156.363 93.2163 155.799 92.9232 155.15Z" fill="#3F3D56"/>
<path d="M92.8094 157.243C91.8629 154.794 92.0857 151.863 92.4261 149.214C92.7815 146.449 93.2473 143.641 92.8442 140.829C92.6614 139.463 92.2287 138.196 91.5921 137.161C91.2856 136.674 90.7904 137.401 91.096 137.886C92.2863 139.774 92.4242 142.514 92.2312 144.947C92.0035 147.817 91.3581 150.614 91.4382 153.53C91.4592 155.009 91.7215 156.46 92.2035 157.761C92.2521 157.873 92.3287 157.954 92.4171 157.985C92.5056 158.017 92.599 157.997 92.6776 157.93C92.7562 157.863 92.8139 157.754 92.8384 157.626C92.863 157.498 92.8526 157.361 92.8094 157.243Z" fill="#3F3D56"/>
<path d="M100.5 165H83.5C83.1023 165 82.721 164.831 82.4398 164.531C82.1586 164.231 82.0004 163.824 82 163.4V158.074C82.0015 156.705 82.5119 155.393 83.4192 154.425C84.3266 153.457 85.5568 152.913 86.8399 152.911H89.3333C89.4659 152.911 89.593 152.855 89.6867 152.755C89.7805 152.655 89.8332 152.519 89.8333 152.378V149.889C89.8336 149.653 89.9215 149.427 90.0777 149.261C90.2339 149.094 90.4457 149 90.6667 149H93.3333C93.5543 149 93.7661 149.094 93.9223 149.261C94.0785 149.427 94.1664 149.653 94.1667 149.889V152.378C94.1668 152.519 94.2195 152.655 94.3133 152.755C94.407 152.855 94.5341 152.911 94.6667 152.911H97.1601C98.4432 152.913 99.6734 153.457 100.581 154.425C101.488 155.393 101.999 156.705 102 158.074V163.4C102 163.824 101.841 164.231 101.56 164.531C101.279 164.831 100.898 165 100.5 165Z" fill="#FBB724"/>
<path d="M91.8928 133.872C92.2021 135.957 91.8192 137.798 91.0374 137.985C90.2557 138.172 89.3712 136.634 89.0619 134.55C88.7525 132.466 89.7039 129 89.7039 129C89.7039 129 91.5835 131.788 91.8928 133.872Z" fill="#1B3F71"/>
<path d="M99.5975 142.538C98.5264 143.67 97.0869 144.271 96.3823 143.881C95.6777 143.491 95.9748 142.257 97.0459 141.124C98.117 139.992 101 139 101 139C101 139 100.669 141.405 99.5975 142.538Z" fill="#1B3F71"/>
<path d="M61.2822 31.1503C60.7016 29.1738 60.6379 26.9676 61.1023 24.9302C61.5668 22.8927 62.5289 21.1585 63.8148 20.0407C64.243 19.6708 63.8516 18.7124 63.4212 19.0842C61.9463 20.3353 60.8454 22.3113 60.3271 24.638C59.8089 26.9647 59.9091 29.4806 60.6088 31.7094C60.8056 32.3629 61.4775 31.7992 61.2822 31.1503Z" fill="#3F3D56"/>
<path d="M61.7141 33.2435C60.2944 30.794 60.6285 27.8626 61.1391 25.2138C61.6722 22.4486 62.3709 19.641 61.7664 16.8286C61.4922 15.4632 60.8431 14.1957 59.8882 13.1609C59.4284 12.6745 58.6855 13.4008 59.1439 13.8857C60.9294 15.7743 61.1364 18.5141 60.8468 20.9472C60.5052 23.8171 59.5372 26.6136 59.6574 29.5299C59.6888 31.0091 60.0823 32.4596 60.8052 33.7609C60.8781 33.8734 60.993 33.9538 61.1257 33.9854C61.2584 34.0169 61.3984 33.997 61.5163 33.9299C61.6342 33.8628 61.7208 33.7537 61.7577 33.6256C61.7946 33.4976 61.7789 33.3605 61.7141 33.2435Z" fill="#3F3D56"/>
<path d="M68.5 40H51.5C51.1023 39.9996 50.721 39.852 50.4398 39.5895C50.1586 39.327 50.0004 38.9712 50 38.6V33.9394C50.0015 32.7418 50.5119 31.5936 51.4192 30.7468C52.3265 29.8999 53.5567 29.4236 54.8399 29.4222H57.3333C57.4659 29.4221 57.593 29.3729 57.6867 29.2854C57.7805 29.1979 57.8332 29.0793 57.8333 28.9556V26.7778C57.8336 26.5716 57.9215 26.3739 58.0777 26.2281C58.2339 26.0823 58.4457 26.0002 58.6667 26H61.3333C61.5543 26.0002 61.7661 26.0823 61.9223 26.2281C62.0785 26.3739 62.1664 26.5716 62.1667 26.7778V28.9556C62.1668 29.0793 62.2195 29.1979 62.3133 29.2854C62.407 29.3729 62.5341 29.4221 62.6667 29.4222H65.1601C66.4433 29.4236 67.6735 29.8999 68.5808 30.7468C69.4881 31.5936 69.9985 32.7418 70 33.9394V38.6C69.9996 38.9712 69.8414 39.327 69.5602 39.5895C69.279 39.852 68.8977 39.9996 68.5 40Z" fill="#FBB724"/>
<path d="M60.8571 9.78971C61.2695 11.4107 60.7589 12.8426 59.7166 12.988C58.6742 13.1335 57.4949 11.9373 57.0825 10.3164C56.67 8.69546 57.9385 6 57.9385 6C57.9385 6 60.4446 8.16878 60.8571 9.78971Z" fill="#1B3F71"/>
<path d="M66.878 18.2452C66.0211 19.6038 64.8695 20.3256 64.3058 19.8572C63.7421 19.3889 63.9798 17.9078 64.8367 16.5492C65.6936 15.1905 68 14 68 14C68 14 67.7349 16.8865 66.878 18.2452Z" fill="#1B3F71"/>
<path d="M26 94H12V98H26V94Z" fill="#1B3F71"/>
<path d="M26 111H12V116H26V111Z" fill="#1B3F71"/>
<path d="M112.1 205H5.9C4.33576 204.998 2.83609 204.379 1.73001 203.277C0.623924 202.175 0.0017536 200.681 0 199.123V5.8769C0.0017536 4.31878 0.623924 2.82499 1.73001 1.72323C2.83609 0.621481 4.33576 0.00174673 5.9 0H112.1C113.664 0.00175403 115.164 0.621488 116.27 1.72324C117.376 2.82499 117.998 4.31879 118 5.8769V199.123C117.998 200.681 117.376 202.175 116.27 203.277C115.164 204.378 113.664 204.998 112.1 205ZM5.9 0.6914C4.51979 0.692955 3.19657 1.23978 2.22061 2.21191C1.24466 3.18404 0.695679 4.50209 0.694118 5.8769V199.123C0.695679 200.498 1.24466 201.816 2.22061 202.788C3.19657 203.76 4.51979 204.307 5.9 204.309H112.1C113.48 204.307 114.803 203.76 115.779 202.788C116.755 201.816 117.304 200.498 117.306 199.123V5.8769C117.304 4.50209 116.755 3.18404 115.779 2.21191C114.803 1.23978 113.48 0.692955 112.1 0.6914H5.9Z" fill="#3F3D56"/>
<path d="M117 81H0V82H117V81Z" fill="#3F3D56"/>
<path d="M118 40H1V41H118V40Z" fill="#3F3D56"/>
<path d="M117 122H0V123H117V122Z" fill="#3F3D56"/>
<path d="M117 165H0V166H117V165Z" fill="#3F3D56"/>
<path d="M25.1818 123H12.8182C12.3361 122.999 11.874 122.822 11.5331 122.507C11.1923 122.191 11.0006 121.764 11 121.318V88.6822C11.0006 88.2362 11.1923 87.8087 11.5331 87.4933C11.874 87.1779 12.3361 87.0005 12.8182 87H25.1818C25.6639 87.0005 26.126 87.1779 26.4669 87.4933C26.8077 87.8087 26.9994 88.2362 27 88.6822V121.318C26.9994 121.764 26.8077 122.191 26.4669 122.507C26.126 122.822 25.6639 122.999 25.1818 123ZM12.8182 87.6729C12.529 87.6732 12.2517 87.7796 12.0472 87.9689C11.8426 88.1581 11.7276 88.4146 11.7273 88.6822V121.318C11.7276 121.585 11.8426 121.842 12.0472 122.031C12.2517 122.22 12.529 122.327 12.8182 122.327H25.1818C25.471 122.327 25.7483 122.22 25.9528 122.031C26.1574 121.842 26.2724 121.585 26.2727 121.318V88.6822C26.2724 88.4146 26.1574 88.1581 25.9528 87.9689C25.7483 87.7796 25.471 87.6732 25.1818 87.6729H12.8182Z" fill="#1B3F71"/>
<path d="M48 94H33V98H48V94Z" fill="#1B3F71"/>
<path d="M48 111H33V116H48V111Z" fill="#1B3F71"/>
<path d="M46.2955 123H34.7045C34.2526 122.999 33.8194 122.822 33.4998 122.507C33.1803 122.191 33.0005 121.764 33 121.318V88.6822C33.0005 88.2362 33.1803 87.8087 33.4998 87.4933C33.8194 87.1779 34.2526 87.0005 34.7045 87H46.2955C46.7474 87.0005 47.1806 87.1779 47.5002 87.4933C47.8197 87.8087 47.9995 88.2362 48 88.6822V121.318C47.9995 121.764 47.8197 122.191 47.5002 122.507C47.1806 122.822 46.7474 122.999 46.2955 123ZM34.7045 87.6729C34.4334 87.6732 34.1734 87.7796 33.9817 87.9689C33.79 88.1581 33.6821 88.4146 33.6818 88.6822V121.318C33.6821 121.585 33.79 121.842 33.9817 122.031C34.1734 122.22 34.4334 122.327 34.7045 122.327H46.2955C46.5666 122.327 46.8266 122.22 47.0183 122.031C47.21 121.842 47.3179 121.585 47.3182 121.318V88.6822C47.3179 88.4146 47.21 88.1581 47.0183 87.9689C46.8266 87.7796 46.5666 87.6732 46.2955 87.6729H34.7045Z" fill="#1B3F71"/>
<path d="M82 52H67V57H82V52Z" fill="#1B3F71"/>
<path d="M82 68H67V74H82V68Z" fill="#1B3F71"/>
<path d="M81.1818 82H68.8182C68.3361 81.9995 67.874 81.8171 67.5331 81.493C67.1923 81.1689 67.0006 80.7294 67 80.271V46.729C67.0006 46.2706 67.1923 45.8311 67.5331 45.507C67.874 45.1829 68.3361 45.0005 68.8182 45H81.1818C81.6639 45.0005 82.126 45.1829 82.4669 45.507C82.8077 45.8311 82.9994 46.2706 83 46.729V80.271C82.9994 80.7294 82.8077 81.1689 82.4669 81.493C82.126 81.8171 81.6639 81.9995 81.1818 82ZM68.8182 45.6916C68.529 45.6919 68.2517 45.8013 68.0472 45.9958C67.8426 46.1903 67.7276 46.4539 67.7273 46.729V80.271C67.7276 80.5461 67.8426 80.8097 68.0472 81.0042C68.2517 81.1987 68.529 81.3081 68.8182 81.3084H81.1818C81.471 81.3081 81.7483 81.1987 81.9529 81.0042C82.1574 80.8098 82.2724 80.5461 82.2727 80.271V46.729C82.2724 46.4539 82.1574 46.1902 81.9529 45.9958C81.7483 45.8013 81.471 45.6919 81.1818 45.6916H68.8182Z" fill="#1B3F71"/>
<path d="M103 52H89V57H103V52Z" fill="#1B3F71"/>
<path d="M103 68H89V74H103V68Z" fill="#1B3F71"/>
<path d="M102.295 82H90.7045C90.2526 81.9995 89.8194 81.8171 89.4998 81.493C89.1803 81.1689 89.0005 80.7294 89 80.271V46.729C89.0005 46.2706 89.1803 45.8311 89.4998 45.507C89.8194 45.1829 90.2526 45.0005 90.7045 45H102.295C102.747 45.0005 103.181 45.1829 103.5 45.507C103.82 45.8311 103.999 46.2706 104 46.729V80.271C103.999 80.7294 103.82 81.1689 103.5 81.493C103.181 81.8171 102.747 81.9995 102.295 82ZM90.7045 45.6916C90.4334 45.6919 90.1734 45.8013 89.9817 45.9958C89.79 46.1902 89.6821 46.4539 89.6818 46.729V80.271C89.6821 80.5461 89.79 80.8098 89.9817 81.0042C90.1734 81.1987 90.4334 81.3081 90.7045 81.3084H102.295C102.567 81.3081 102.827 81.1987 103.018 81.0042C103.21 80.8098 103.318 80.5461 103.318 80.271V46.729C103.318 46.4539 103.21 46.1902 103.018 45.9958C102.827 45.8013 102.567 45.6919 102.295 45.6916H90.7045Z" fill="#1B3F71"/>
<path d="M64.942 90.7142L51.684 95.6943L53.5067 100.543L66.7647 95.5629L64.942 90.7142Z" fill="#1B3F71"/>
<path d="M70.896 106.554L57.638 111.534L59.4607 116.382L72.7187 111.402L70.896 106.554Z" fill="#1B3F71"/>
<path d="M63.3916 123C63.0435 122.999 62.7038 122.894 62.4178 122.699C62.1317 122.504 61.9128 122.227 61.7901 121.907L50.1088 91.3078C49.9497 90.8895 49.9656 90.4261 50.1531 90.0194C50.3406 89.6126 50.6844 89.2956 51.109 89.138L62.0054 85.1077C62.2158 85.0299 62.4397 84.9936 62.6644 85.0009C62.8891 85.0083 63.1101 85.0591 63.3148 85.1506C63.5196 85.242 63.704 85.3722 63.8575 85.5338C64.0111 85.6954 64.1308 85.8852 64.2099 86.0924L75.8912 116.691C76.0503 117.11 76.0344 117.573 75.8469 117.98C75.6594 118.387 75.3156 118.704 74.891 118.861L63.9946 122.891C63.8019 122.963 63.5976 123 63.3916 123ZM62.6081 85.6735C62.4845 85.6736 62.3619 85.6957 62.2462 85.7386L51.3499 89.7688C51.0951 89.8634 50.8889 90.0536 50.7764 90.2977C50.6638 90.5418 50.6543 90.8199 50.7497 91.0709L62.4311 121.67C62.4785 121.794 62.5504 121.908 62.6425 122.005C62.7347 122.102 62.8453 122.18 62.9681 122.235C63.091 122.29 63.2236 122.32 63.3584 122.325C63.4932 122.329 63.6275 122.307 63.7538 122.261L74.6501 118.23C74.9049 118.136 75.1111 117.946 75.2237 117.701C75.3362 117.457 75.3457 117.179 75.2503 116.928L63.5689 86.3293C63.4953 86.137 63.364 85.9712 63.1923 85.854C63.0207 85.7369 62.8169 85.6739 62.6081 85.6735Z" fill="#1B3F71"/>
<path d="M17.271 49.6209L4.013 54.6011L5.83566 59.4498L19.0937 54.4697L17.271 49.6209Z" fill="#1B3F71"/>
<path d="M23.225 65.4608L9.96698 70.4409L11.7896 75.2897L25.0476 70.3095L23.225 65.4608Z" fill="#1B3F71"/>
<path d="M14.9067 82C14.5452 81.9993 14.1924 81.8916 13.8954 81.6912C13.5983 81.4908 13.371 81.2071 13.2436 80.878L1.11296 49.4738C0.947746 49.0445 0.964313 48.5689 1.15903 48.1515C1.35374 47.734 1.71071 47.4087 2.15164 47.2469L13.4671 43.1106C13.6856 43.0307 13.9182 42.9934 14.1515 43.001C14.3848 43.0085 14.6144 43.0607 14.8269 43.1545C15.0395 43.2484 15.231 43.382 15.3905 43.5479C15.55 43.7137 15.6743 43.9085 15.7564 44.1211L27.887 75.5253C28.0523 75.9546 28.0357 76.4302 27.841 76.8477C27.6463 77.2652 27.2893 77.5905 26.8484 77.7523L15.5329 81.8885C15.3328 81.9621 15.1206 81.9998 14.9067 82ZM14.093 43.6912C13.9646 43.6913 13.8373 43.714 13.7172 43.7581L2.40183 47.8943C2.13725 47.9914 1.92305 48.1866 1.80621 48.4372C1.68937 48.6877 1.67943 48.973 1.77858 49.2307L13.9092 80.6348C13.9585 80.7624 14.0331 80.8792 14.1288 80.9787C14.2245 81.0782 14.3394 81.1584 14.4669 81.2147C14.5945 81.271 14.7322 81.3023 14.8722 81.3068C15.0121 81.3114 15.1517 81.289 15.2828 81.2411L26.5982 77.1048C26.8627 77.0077 27.077 76.8125 27.1938 76.562C27.3106 76.3115 27.3206 76.0261 27.2214 75.7685L15.0908 44.3643C15.0143 44.1669 14.878 43.9967 14.6997 43.8765C14.5215 43.7563 14.3099 43.6916 14.093 43.6912Z" fill="#1B3F71"/>
<path d="M211.5 87C217.299 87 222 81.8513 222 75.5C222 69.1487 217.299 64 211.5 64C205.701 64 201 69.1487 201 75.5C201 81.8513 205.701 87 211.5 87Z" fill="#2F2E41"/>
<path d="M164.417 124.746C164.925 124.945 165.47 125.028 166.014 124.991C166.558 124.955 167.087 124.798 167.564 124.532C168.041 124.266 168.455 123.898 168.776 123.454C169.097 123.009 169.317 122.499 169.422 121.959L199 103.119L193.616 97L166.222 117.455C165.312 117.338 164.391 117.562 163.633 118.085C162.876 118.607 162.335 119.392 162.112 120.291C161.889 121.19 162.001 122.14 162.426 122.961C162.851 123.782 163.559 124.417 164.417 124.746Z" fill="#FFB8B8"/>
<path d="M192.175 108C191.904 108 191.637 107.933 191.398 107.804C191.159 107.674 190.957 107.487 190.81 107.26L187.258 101.755C187.033 101.408 186.951 100.988 187.028 100.582C187.105 100.176 187.335 99.8148 187.671 99.5727L199.559 91.006C200.136 90.5902 200.79 90.2941 201.484 90.135C202.178 89.976 202.896 89.9572 203.598 90.0799C204.299 90.2026 204.968 90.4642 205.566 90.8493C206.164 91.2344 206.678 91.7352 207.078 92.3219C207.479 92.9087 207.757 93.5695 207.896 94.2654C208.036 94.9612 208.034 95.678 207.891 96.3731C207.748 97.0683 207.467 97.7278 207.064 98.3127C206.661 98.8975 206.144 99.3958 205.544 99.7781L193.045 107.746C192.785 107.912 192.484 108 192.175 108Z" fill="#2F2E41"/>
<path d="M197.999 199L193.256 199L191 184L198 184L197.999 199Z" fill="#FFB8B8"/>
<path d="M218 197.779L214.092 199L208 182.803L213.768 181L218 197.779Z" fill="#FFB8B8"/>
<path d="M229.156 172L213 153.247L222.803 141.547C222.947 141.375 223.128 141.237 223.332 141.143C223.537 141.048 223.76 140.999 223.986 141C224.212 141.001 224.436 141.051 224.64 141.146C224.844 141.242 225.023 141.381 225.166 141.554L240 159.46L229.156 172Z" fill="#1B3F71"/>
<path d="M213 153.678C213.255 153.196 213.572 152.753 213.941 152.361L223.969 141.709C224.362 141.289 224.891 141.04 225.451 141.011C226.597 140.954 228.476 141.076 229 142.393L215.462 154L213 153.678Z" fill="#F2F2F2"/>
<path d="M229.623 177C228.913 176.977 228.222 176.743 227.629 176.325L227.585 176.276L213 152.414L215.42 152.164L228.391 141.341C228.555 141.204 228.743 141.105 228.945 141.05C229.146 140.995 229.356 140.985 229.56 141.021C229.765 141.057 229.961 141.138 230.136 141.259C230.31 141.379 230.459 141.537 230.574 141.723L244.752 164.679C244.97 165.033 245.048 165.465 244.971 165.881C244.893 166.297 244.666 166.664 244.338 166.902L230.618 176.799C230.301 176.933 229.963 177.002 229.623 177Z" fill="#1B3F71"/>
<path d="M223.735 161C223.586 161 223.439 160.963 223.307 160.892C223.175 160.821 223.062 160.718 222.979 160.592L221.155 157.84C221.02 157.636 220.971 157.387 221.017 157.146C221.063 156.905 221.202 156.693 221.402 156.556L230.758 150.157C230.958 150.02 231.204 149.97 231.441 150.017C231.678 150.064 231.886 150.205 232.022 150.408L233.845 153.16C233.98 153.363 234.029 153.613 233.983 153.854C233.937 154.094 233.798 154.307 233.598 154.444L224.242 160.843C224.092 160.945 223.916 161 223.735 161Z" fill="white"/>
<path d="M191.716 198C191.253 197.998 190.807 197.819 190.466 197.497C190.125 197.175 189.913 196.734 189.873 196.26C189.134 187.641 185.426 144.201 185.019 135.428C184.567 125.681 192.47 110.26 192.55 110.106L192.605 110L196.511 110.501V110.967L200.229 111.416L207.425 112.131L209.485 137.976L210.396 155.503L218.954 191.303C219.051 191.699 218.992 192.119 218.79 192.471C218.588 192.823 218.26 193.08 217.875 193.185L210.427 195.27C210.039 195.377 209.627 195.323 209.278 195.121C208.928 194.919 208.67 194.584 208.559 194.189L201.546 168.905C201.512 168.782 201.436 168.677 201.332 168.608C201.227 168.54 201.102 168.513 200.98 168.532C200.857 168.552 200.746 168.616 200.667 168.714C200.587 168.812 200.546 168.936 200.55 169.064L201.291 193.718C201.295 193.971 201.248 194.222 201.154 194.456C201.06 194.69 200.92 194.902 200.743 195.078C199.036 196.724 194.525 197.603 191.988 197.98C191.898 197.993 191.807 198 191.716 198Z" fill="#2F2E41"/>
<path d="M213.571 90.4255C212.335 89.1784 204.189 90.8922 202.381 92.7295L190 112.314L210.476 116L215 91.1167L213.571 90.4255Z" fill="#FBB724"/>
<path d="M208.513 141C208.092 141 207.674 140.928 207.276 140.787C206.14 140.385 204.749 139.964 203.139 139.537C196.091 137.665 193.603 131.673 195.743 121.727L195.797 121.474C197.807 112.039 201.596 103.105 206.947 95.1809L207.776 93.9514C208.776 92.468 210.177 91.3209 211.804 90.6528C213.43 89.9848 215.211 89.8251 216.925 90.1938C220.097 90.8693 221.799 91.8481 221.986 93.1033C222.353 95.5661 215.27 125.338 212.207 138.024C212.002 138.875 211.526 139.63 210.857 140.169C210.188 140.709 209.362 141.001 208.513 141Z" fill="#2BCECD"/>
<path d="M184.097 137C183.911 137 183.726 136.97 183.55 136.911L181.248 136.14C181.01 136.06 180.791 135.929 180.604 135.755C180.417 135.581 180.267 135.369 180.163 135.131C180.059 134.893 180.003 134.635 180 134.373C179.997 134.112 180.046 133.852 180.144 133.611L192.356 103.586C194.696 97.8582 198.788 93.1077 203.987 90.0815C204.062 90.038 204.145 90.0113 204.231 90.0029C204.317 89.9945 204.403 90.0046 204.485 90.0327C204.56 90.0578 204.629 90.099 204.688 90.1539C204.747 90.2087 204.795 90.2758 204.827 90.351C206.264 93.6606 198.446 109.323 192.165 121.909C188.948 128.353 186.17 133.918 185.854 135.505C185.77 135.928 185.549 136.307 185.229 136.58C184.909 136.852 184.509 137 184.097 137Z" fill="#2BCECD"/>
<path d="M221.546 142.267C221.97 141.953 222.319 141.55 222.569 141.086C222.82 140.623 222.965 140.11 222.994 139.585C223.024 139.06 222.937 138.534 222.741 138.046C222.544 137.558 222.242 137.118 221.856 136.758L221.76 103L214 104.295L216.538 137.088C215.973 137.773 215.681 138.64 215.716 139.525C215.751 140.41 216.111 141.251 216.729 141.89C217.346 142.528 218.177 142.919 219.065 142.989C219.953 143.058 220.836 142.802 221.546 142.267Z" fill="#FFB8B8"/>
<path d="M215.405 111C215.023 111 214.656 110.849 214.378 110.579C214.099 110.309 213.931 109.939 213.906 109.544L213.01 95.4594C212.926 94.1042 213.363 92.7695 214.226 91.7481C215.089 90.7268 216.308 90.1021 217.614 90.0111C218.285 89.9653 218.958 90.0619 219.592 90.2952C220.225 90.5285 220.806 90.8934 221.299 91.3676C221.792 91.8419 222.186 92.4155 222.458 93.0533C222.729 93.6911 222.872 94.3797 222.878 95.0768L223 109.353C223.003 109.766 222.848 110.163 222.57 110.457C222.292 110.752 221.912 110.92 221.515 110.926L215.423 111L215.405 111Z" fill="#2F2E41"/>
<path d="M210 87C214.971 87 219 82.9706 219 78C219 73.0294 214.971 69 210 69C205.029 69 201 73.0294 201 78C201 82.9706 205.029 87 210 87Z" fill="#FFB8B8"/>
<path d="M216.071 85C216.66 82.756 217.201 80.1102 216.035 78.2167C215.194 76.8523 213.685 76.3242 212.27 76.2486C210.855 76.173 209.435 76.46 208.023 76.3257C206.611 76.1914 205.118 75.5245 204.401 74.0631C203.47 72.1681 204.258 69.5579 205.754 68.2817C207.249 67.0055 209.225 66.8273 211.045 67.1246C213.349 67.4517 215.514 68.6104 217.253 70.4464C218.945 72.3144 220.048 75.007 219.998 77.7606C219.949 80.5143 218.658 83.2564 216.601 84.4928" fill="#2F2E41"/>
<path d="M215.413 65.8143C213.377 65.1982 212.438 62.5537 213.348 60.6615C214.259 58.7692 216.587 57.7784 218.701 58.042C220.814 58.3055 222.677 59.6376 223.962 61.3073C225.246 62.9771 226.021 64.9675 226.667 66.962C227.313 68.9565 227.85 70.9942 228.732 72.8994C230.132 75.8266 232.292 78.3404 234.994 80.1881C237.696 82.0359 240.846 83.1525 244.127 83.4259C245.557 83.5276 247.041 83.4547 248.344 82.8676C249.647 82.2804 250.74 81.0967 250.886 79.6957C251.628 84.6724 248.68 89.9614 244.013 92.0295C239.345 94.0976 233.358 92.7671 230.051 88.927C226.82 85.1742 226.319 79.8759 226.397 74.9612C226.418 73.6135 226.469 72.2404 226.09 70.945C225.711 69.6495 224.814 68.4178 223.507 68.0064C222.453 67.6744 221.311 67.9137 220.23 68.149C219.149 68.3844 218.001 68.6109 216.955 68.2561C215.908 67.9014 215.066 66.7323 215.487 65.7268" fill="#2F2E41"/>
<path d="M248.658 205H158.342C158.251 205 158.164 204.947 158.1 204.854C158.036 204.76 158 204.633 158 204.5C158 204.367 158.036 204.24 158.1 204.146C158.164 204.053 158.251 204 158.342 204H248.658C248.749 204 248.836 204.053 248.9 204.146C248.964 204.24 249 204.367 249 204.5C249 204.633 248.964 204.76 248.9 204.854C248.836 204.947 248.749 205 248.658 205Z" fill="#CCCCCC"/>
<path d="M191.023 199H199V204H186C186 203.343 186.13 202.693 186.382 202.087C186.635 201.48 187.005 200.929 187.471 200.464C187.938 200 188.491 199.632 189.101 199.381C189.71 199.129 190.363 199 191.023 199Z" fill="#2F2E41"/>
<path d="M210.436 198.091L218.3 195.884L219.69 200.834L206.875 204.43C206.692 203.78 206.64 203.1 206.72 202.43C206.8 201.76 207.012 201.112 207.342 200.523C207.673 199.935 208.116 199.417 208.647 199C209.178 198.582 209.786 198.274 210.436 198.091Z" fill="#2F2E41"/>
</svg>
