<svg width="203" height="258" viewBox="0 0 203 258" fill="none" xmlns="http://www.w3.org/2000/svg">
<path d="M80.3893 196.974C81.298 196.974 82.0186 197.694 82.0186 198.54C82.0186 198.854 81.9246 199.198 81.8306 199.449L76.1282 217.903C75.8462 218.718 75.1882 219.157 74.311 219.157C73.4337 219.157 72.8384 218.718 72.5564 217.903L67.0733 203.052L61.5902 217.903C61.2769 218.718 60.6816 219.157 59.8043 219.157C58.927 219.157 58.269 218.718 58.0184 217.903L52.3159 199.449C52.2219 199.198 52.0966 198.854 52.0966 198.54C52.0966 197.694 52.8173 196.974 53.7572 196.974C54.5092 196.974 55.1985 197.412 55.3865 198.039L59.9296 213.674L65.538 198.07C65.8513 197.287 66.4153 196.974 67.0419 196.974C67.6999 196.974 68.2952 197.287 68.5772 198.07L74.217 213.674L78.7601 198.039C78.9481 197.412 79.6374 196.974 80.3893 196.974ZM86.6993 199.637C85.7907 199.637 85.0074 198.885 85.0074 197.976C85.0074 197.068 85.7907 196.316 86.6993 196.316C87.6079 196.316 88.3912 197.068 88.3912 197.976C88.3912 198.885 87.6079 199.637 86.6993 199.637ZM86.6993 202.613C87.6079 202.613 88.3599 203.365 88.3599 204.305V217.496C88.3599 218.436 87.6079 219.188 86.6993 219.188C85.7907 219.188 85.0387 218.436 85.0387 217.496V204.305C85.0387 203.365 85.7907 202.613 86.6993 202.613ZM97.557 202.519C99.8129 202.519 101.756 203.428 102.758 204.963C102.946 205.245 103.197 205.59 103.197 206.123C103.197 206.906 102.601 207.376 101.85 207.376C101.348 207.376 100.878 207.157 100.408 206.53C99.7816 205.747 98.9043 205.214 97.6197 205.214C96.0531 205.214 95.1131 205.997 95.1131 207.125C95.1131 207.908 95.5518 208.66 97.2124 209.13L99.155 209.663C101.818 210.384 103.823 211.574 103.823 214.206C103.823 217.496 100.722 219.157 97.463 219.157C94.7372 219.157 92.8259 217.966 92.0113 216.681C91.8546 216.462 91.3533 215.835 91.3533 215.084C91.3533 214.426 91.7606 213.736 92.6379 213.736C93.3586 213.736 93.7345 214.175 94.0479 214.645C94.8312 215.961 96.1158 216.399 97.463 216.399C99.2803 216.399 100.534 215.647 100.534 214.394C100.534 213.454 99.8756 212.765 98.309 212.326L96.2098 211.762C93.1706 210.916 91.8546 209.287 91.8546 207.157C91.8546 204.211 94.5178 202.519 97.557 202.519ZM115.722 202.551C118.762 202.551 121.738 204.462 121.738 209.788V217.496C121.738 218.405 121.018 219.157 120.109 219.157C119.2 219.157 118.448 218.405 118.448 217.496V209.788C118.448 206.655 116.662 205.402 114.626 205.402C111.618 205.402 110.302 208.096 110.114 209.444V217.496C110.114 218.405 109.362 219.157 108.453 219.157C107.545 219.157 106.793 218.405 106.793 217.496V198.29C106.793 197.381 107.545 196.629 108.453 196.629C109.362 196.629 110.114 197.381 110.114 198.29V206.373C110.271 205.277 112.151 202.551 115.722 202.551ZM128.809 217.496C128.809 218.405 128.057 219.157 127.149 219.157C126.24 219.157 125.488 218.405 125.488 217.496V198.29C125.488 197.381 126.24 196.629 127.149 196.629C128.057 196.629 128.809 197.381 128.809 198.29V217.496ZM54.5718 237.637C53.6632 237.637 52.8799 236.885 52.8799 235.976C52.8799 235.068 53.6632 234.316 54.5718 234.316C55.4805 234.316 56.2638 235.068 56.2638 235.976C56.2638 236.885 55.4805 237.637 54.5718 237.637ZM54.5718 240.613C55.4805 240.613 56.2324 241.365 56.2324 242.305V255.496C56.2324 256.436 55.4805 257.188 54.5718 257.188C53.6632 257.188 52.9112 256.436 52.9112 255.496V242.305C52.9112 241.365 53.6632 240.613 54.5718 240.613ZM65.4296 240.519C67.6855 240.519 69.6281 241.428 70.6307 242.963C70.8187 243.245 71.0693 243.59 71.0693 244.123C71.0693 244.906 70.474 245.376 69.722 245.376C69.2207 245.376 68.7508 245.157 68.2808 244.53C67.6541 243.747 66.7768 243.214 65.4922 243.214C63.9256 243.214 62.9857 243.997 62.9857 245.125C62.9857 245.908 63.4243 246.66 65.0849 247.13L67.0275 247.663C69.6907 248.384 71.696 249.574 71.696 252.206C71.696 255.496 68.5941 257.157 65.3356 257.157C62.6097 257.157 60.6985 255.966 59.8838 254.681C59.7272 254.462 59.2259 253.835 59.2259 253.084C59.2259 252.426 59.6332 251.736 60.5105 251.736C61.2311 251.736 61.6071 252.175 61.9204 252.645C62.7037 253.961 63.9883 254.399 65.3356 254.399C67.1528 254.399 68.4061 253.647 68.4061 252.394C68.4061 251.454 67.7481 250.765 66.1815 250.326L64.0823 249.762C61.0431 248.916 59.7272 247.287 59.7272 245.157C59.7272 242.211 62.3904 240.519 65.4296 240.519ZM81.2524 254.149C82.0357 254.023 82.5997 254.525 82.5997 255.308C82.5997 256.593 81.1271 257.157 79.3725 257.157C77.4926 257.157 75.644 256.499 75.644 252.896V243.371H74.4534C73.6388 243.371 73.1061 242.838 73.1061 242.023C73.1061 241.24 73.6388 240.707 74.4534 240.707H75.644V238.264C75.644 237.386 76.396 236.634 77.2733 236.634C78.1819 236.634 78.9339 237.386 78.9339 238.264V240.707H81.2211C82.0357 240.707 82.5997 241.24 82.5997 242.023C82.5997 242.838 82.0357 243.371 81.2211 243.371H78.9339V252.927C78.9339 253.867 79.3099 254.305 80.0305 254.305C80.4378 254.305 80.9078 254.18 81.2524 254.149Z" fill="white"/>
<path d="M181.175 161.615L181.171 161.712L186 213H150.763L146.196 181.5L144.186 212.192L108 211.788L111.844 171.493L115.112 152.815V152.811L115.603 150H180.214L180.299 151.018L181.175 161.615Z" fill="#2F2E41"/>
<path d="M88.0551 191.928C91.757 192.608 95.6172 188.406 96.6771 182.542C97.141 179.976 96.9913 177.516 96.3659 175.505L96.9335 172.125L106.459 126.656C106.459 126.656 124 91.2902 124 85.1505C124 79.0109 118.926 76 118.926 76L112.06 76.0647L90.5294 129.066L86.6518 168.232L86.0245 173.606C84.7356 175.266 83.7349 177.514 83.2711 180.081C82.2112 185.944 84.3531 191.248 88.0551 191.928Z" fill="#FFB6B6"/>
<path d="M160 53.6781L153.287 41L131.469 44.0839L130 59L160 53.6781Z" fill="#FFB6B6"/>
<path opacity="0.1" d="M160 53.6781L153.287 41L131.469 44.0839L130 59L160 53.6781Z" fill="black"/>
<path d="M202.771 84.7727C202.771 84.7727 187.975 57.532 185.176 54.7684C183.93 53.5382 181.971 53.5211 180.18 53.8796L159.582 46.8726L152.601 43L152.141 50.3676L129.221 54.429C129.348 49.936 129.99 48.227 129.99 48.227L121.592 57.9268L105.196 65.8226L105.205 65.8937C104.002 66.3084 102.861 67.0179 101.997 68.1914C98.7978 72.5341 90 125.436 90 125.436L108.795 129.384L111.353 113.537L113.194 127.805L114.594 154.454C114.594 154.454 140.187 176.167 152.584 168.271C164.981 160.375 180.177 160.77 180.177 160.77L180.556 148.418C180.826 147.992 180.977 147.742 180.977 147.742L180.577 103.926V92.2673C183.624 96.4574 187.3 100.061 191.574 101.749C205.571 107.276 202.771 84.7727 202.771 84.7727Z" fill="#FBB724"/>
<path d="M141 45C151.493 45 160 36.4934 160 26C160 15.5066 151.493 7 141 7C130.507 7 122 15.5066 122 26C122 36.4934 130.507 45 141 45Z" fill="#FFB6B6"/>
<path d="M154.267 33C154.267 33 155.981 27.0046 159.839 27.4329C163.696 27.8611 164.553 24.4352 163.696 22.7222C162.839 21.0093 161.125 12.4445 161.125 12.4445C161.125 12.4445 161.982 6.44914 156.839 5.59266C151.695 4.73618 149.981 3.8797 149.124 2.16674C148.267 0.453781 135.409 -1.25918 131.123 1.31026C126.837 3.8797 123.408 8.80951 120.408 10.1988C117.408 11.588 114.836 14.1575 116.55 18.4398C118.265 22.7222 120.751 31.0977 120.751 31.0977C120.751 31.0977 125.122 29.5741 125.979 32.1435C126.837 34.713 123.408 31.287 127.694 24.4352C131.98 17.5834 131.98 10.7315 138.837 13.301C145.695 15.8704 153.41 15.0139 152.553 20.1528C151.695 25.2917 154.267 33 154.267 33Z" fill="#2F2E41"/>
<path d="M152.461 183.259H7.43889C3.33768 183.259 0.0012207 179.924 0.0012207 175.826V98.8365C0.0012207 94.7381 3.33768 91.4033 7.43889 91.4033H152.461C156.562 91.4033 159.899 94.7381 159.899 98.8365V175.826C159.899 179.924 156.562 183.259 152.461 183.259Z" fill="white"/>
<path d="M152.461 183.259H7.43889C3.33768 183.259 0.0012207 179.924 0.0012207 175.826V98.8365C0.0012207 94.7381 3.33768 91.4033 7.43889 91.4033H152.461C156.562 91.4033 159.899 94.7381 159.899 98.8365V175.826C159.899 179.924 156.562 183.259 152.461 183.259ZM7.43889 92.6446C4.02268 92.6446 1.24326 95.4224 1.24326 98.8365V175.826C1.24326 179.24 4.02268 182.017 7.43889 182.017H152.461C155.877 182.017 158.657 179.24 158.657 175.826V98.8365C158.657 95.4224 155.877 92.6446 152.461 92.6446H7.43889Z" fill="#3F3D56"/>
<path d="M141.268 100.713C142.297 100.713 143.131 99.879 143.131 98.8507C143.131 97.8224 142.297 96.9888 141.268 96.9888C140.239 96.9888 139.405 97.8224 139.405 98.8507C139.405 99.879 140.239 100.713 141.268 100.713Z" fill="#3F3D56"/>
<path d="M146.236 100.713C147.265 100.713 148.099 99.879 148.099 98.8507C148.099 97.8224 147.265 96.9888 146.236 96.9888C145.207 96.9888 144.373 97.8224 144.373 98.8507C144.373 99.879 145.207 100.713 146.236 100.713Z" fill="#3F3D56"/>
<path d="M151.204 100.713C152.233 100.713 153.067 99.879 153.067 98.8507C153.067 97.8224 152.233 96.9888 151.204 96.9888C150.175 96.9888 149.341 97.8224 149.341 98.8507C149.341 99.879 150.175 100.713 151.204 100.713Z" fill="#3F3D56"/>
<path d="M10.5585 128.952C10.0448 128.952 9.62695 129.37 9.62695 129.883C9.62695 130.133 9.72369 130.365 9.89925 130.536C10.0763 130.717 10.3083 130.814 10.5585 130.814H149.962C150.476 130.814 150.894 130.396 150.894 129.883C150.894 129.633 150.797 129.401 150.621 129.23C150.444 129.049 150.212 128.952 149.962 128.952H10.5585Z" fill="#E6E6E6"/>
<path d="M132.574 128.643V131.125H10.5584C10.2169 131.125 9.90638 130.989 9.68283 130.759C9.45301 130.536 9.31641 130.225 9.31641 129.884C9.31641 129.201 9.87534 128.643 10.5584 128.643H132.574Z" fill="#FBB724"/>
<path d="M148.41 123.988H135.989C134.62 123.988 133.505 122.874 133.505 121.505C133.505 120.136 134.62 119.022 135.989 119.022H148.41C149.779 119.022 150.894 120.136 150.894 121.505C150.894 122.874 149.779 123.988 148.41 123.988Z" fill="#E6E6E6"/>
<path d="M67.0563 110.954H11.4902C10.1205 110.954 9.0061 109.841 9.0061 108.471C9.0061 107.102 10.1205 105.989 11.4902 105.989H67.0563C68.426 105.989 69.5404 107.102 69.5404 108.471C69.5404 109.841 68.426 110.954 67.0563 110.954Z" fill="#E6E6E6"/>
<path d="M10.5585 156.881C10.0448 156.881 9.62695 157.298 9.62695 157.812C9.62695 158.062 9.72369 158.294 9.89925 158.465C10.0763 158.646 10.3083 158.743 10.5585 158.743H149.962C150.476 158.743 150.894 158.325 150.894 157.812C150.894 157.562 150.797 157.33 150.621 157.159C150.444 156.978 150.212 156.881 149.962 156.881H10.5585Z" fill="#E6E6E6"/>
<path d="M84.7552 156.571V159.054H10.5584C10.2169 159.054 9.90638 158.917 9.68283 158.688C9.45301 158.464 9.31641 158.154 9.31641 157.813C9.31641 157.13 9.87534 156.571 10.5584 156.571H84.7552Z" fill="#1B3F71"/>
<path d="M148.41 151.916H135.989C134.62 151.916 133.505 150.803 133.505 149.434C133.505 148.065 134.62 146.951 135.989 146.951H148.41C149.779 146.951 150.894 148.065 150.894 149.434C150.894 150.803 149.779 151.916 148.41 151.916Z" fill="#E6E6E6"/>
<path d="M170.153 47.1287C180.895 47.1287 189.603 38.6094 189.603 28.1002C189.603 17.5911 180.895 9.07178 170.153 9.07178C159.412 9.07178 150.704 17.5911 150.704 28.1002C150.704 38.6094 159.412 47.1287 170.153 47.1287Z" fill="#1B3F71"/>
<path d="M176.755 18.5019C174.165 23.214 171.576 27.9262 168.987 32.6383C167.336 29.7242 165.695 26.8049 164.041 23.8931C163.469 22.8874 161.915 23.792 162.488 24.8001C164.406 28.1756 166.304 31.5623 168.221 34.9377C168.549 35.5149 169.45 35.5283 169.774 34.9377C172.618 29.7615 175.463 24.5852 178.307 19.4089C178.865 18.3946 177.312 17.4868 176.755 18.5019Z" fill="white"/>
<path d="M196.308 78.6297L177.443 69.2393C177.443 69.2393 176.685 62.9542 173.147 60.7124C172.546 59.2193 171.854 57.5791 171.225 56.2794C169.671 53.0653 172.002 47 170.059 47C168.117 47 165.244 53.3788 165.396 55.087C165.513 56.3983 166.555 58.6877 166.77 60.6917C164.401 61.6215 162.489 63.2152 161.233 64.4841C160.145 65.5823 159.741 67.2206 160.166 68.7342C161.398 73.1202 164.476 82.1786 168.894 82.1786C174.723 82.1786 176.277 80.9655 176.277 80.9655C176.277 80.9655 188.323 96.7352 197.261 97.9483C206.198 99.1613 196.308 78.6297 196.308 78.6297Z" fill="#FFB6B6"/>
</svg>
