<svg width="291" height="185" viewBox="0 0 291 185" fill="none" xmlns="http://www.w3.org/2000/svg">
<path d="M291 76.3874H290.504V62.8405C290.504 61.8109 290.301 60.7913 289.906 59.8401C289.511 58.8888 288.931 58.0245 288.201 57.2964C287.471 56.5684 286.605 55.9908 285.651 55.5968C284.697 55.2028 283.674 55 282.642 55H253.862C252.83 55 251.807 55.2028 250.853 55.5968C249.9 55.9908 249.033 56.5684 248.303 57.2964C247.573 58.0245 246.994 58.8888 246.598 59.8401C246.203 60.7913 246 61.8109 246 62.8405V137.159C246 138.189 246.203 139.209 246.598 140.16C246.994 141.111 247.573 141.976 248.303 142.704C249.033 143.432 249.9 144.009 250.853 144.403C251.807 144.797 252.83 145 253.862 145H282.642C283.674 145 284.697 144.797 285.651 144.403C286.605 144.009 287.471 143.432 288.201 142.704C288.931 141.976 289.511 141.111 289.906 140.16C290.301 139.209 290.504 138.189 290.504 137.159V86.0302H291V76.3874Z" fill="#3F3D56"/>
<path d="M289 62.8589V137.138C289 138.693 288.376 140.184 287.266 141.283C286.155 142.382 284.649 143 283.079 143H253.919C253.141 143 252.371 142.848 251.653 142.554C250.935 142.259 250.282 141.827 249.733 141.283C249.183 140.739 248.747 140.092 248.45 139.381C248.153 138.67 248 137.908 248 137.138V62.8589C248 61.305 248.624 59.8148 249.734 58.716C250.844 57.6173 252.349 57 253.919 57H257.456C257.283 57.4227 257.217 57.8812 257.264 58.3352C257.311 58.7891 257.471 59.2245 257.728 59.6032C257.985 59.982 258.332 60.2923 258.739 60.5071C259.146 60.7219 259.6 60.8344 260.061 60.8349H276.687C277.148 60.8358 277.603 60.724 278.01 60.5097C278.418 60.2953 278.765 59.9848 279.023 59.6057C279.28 59.2265 279.439 58.7905 279.486 58.336C279.533 57.8815 279.466 57.4227 279.291 57H283.079C284.649 56.9999 286.154 57.6171 287.265 58.7158C288.375 59.8145 288.999 61.3047 289 62.8589Z" fill="#F5F5F5"/>
<path d="M285 94H250V104H285V94Z" fill="#1B3F71"/>
<path d="M285.18 102H251.82C251.603 102 251.394 101.921 251.241 101.78C251.087 101.639 251 101.449 251 101.25V93.75C251 93.5512 251.087 93.3605 251.241 93.2199C251.394 93.0793 251.603 93.0002 251.82 93H285.18C285.397 93.0002 285.606 93.0793 285.759 93.2199C285.913 93.3605 286 93.5512 286 93.75V101.25C286 101.449 285.913 101.639 285.759 101.78C285.606 101.921 285.397 102 285.18 102ZM251.82 93.5C251.748 93.5001 251.678 93.5264 251.627 93.5733C251.576 93.6202 251.547 93.6837 251.547 93.75V101.25C251.547 101.316 251.576 101.38 251.627 101.427C251.678 101.474 251.748 101.5 251.82 101.5H285.18C285.252 101.5 285.322 101.474 285.373 101.427C285.424 101.38 285.453 101.316 285.453 101.25V93.75C285.453 93.6837 285.424 93.6202 285.373 93.5733C285.322 93.5264 285.252 93.5001 285.18 93.5H251.82Z" fill="#3F3D56"/>
<path d="M259 99H254V101H259V99Z" fill="white"/>
<path d="M264 99H260V101H264V99Z" fill="white"/>
<path d="M271 99H266V101H271V99Z" fill="white"/>
<path d="M277 99H271V101H277V99Z" fill="white"/>
<path d="M282 99H278V101H282V99Z" fill="white"/>
<path opacity="0.1" d="M290 129.455V137.081C290 138.651 289.376 140.156 288.266 141.266C287.155 142.376 285.649 143 284.079 143H254.919C254.141 143 253.371 142.847 252.653 142.549C251.935 142.252 251.282 141.816 250.733 141.266C250.183 140.717 249.747 140.064 249.45 139.346C249.153 138.628 249 137.858 249 137.081V102L290 129.455Z" fill="black"/>
<path d="M152 123H27V185H152V123Z" fill="#F5F5F5"/>
<path opacity="0.1" d="M120 185H27.5273C27.3876 185 27.2537 184.943 27.1549 184.843C27.0561 184.743 27.0004 184.607 27 184.466V123.534C27.0004 123.393 27.0561 123.257 27.1549 123.157C27.2537 123.057 27.3876 123 27.5273 123H28.6979L120 185Z" fill="black"/>
<path d="M279 130H84V131H279V130Z" fill="#3F3D56"/>
<path d="M145.243 1.16216H89.7059V0H64.5231V1.16216H8.75669C8.26335 1.16216 7.77485 1.26082 7.31907 1.45249C6.86328 1.64417 6.44915 1.92511 6.10031 2.27928C5.75147 2.63345 5.47475 3.05391 5.28596 3.51666C5.09717 3.9794 5 4.47537 5 4.97624V82.1859C5 83.1975 5.39579 84.1676 6.10031 84.8829C6.80482 85.5982 7.76035 86 8.75669 86H145.243C146.24 86 147.195 85.5982 147.9 84.8829C148.604 84.1676 149 83.1975 149 82.1859V4.97624C149 4.47537 148.903 3.9794 148.714 3.51666C148.525 3.05391 148.249 2.63345 147.9 2.27928C147.551 1.92511 147.137 1.64417 146.681 1.45249C146.225 1.26082 145.737 1.16216 145.243 1.16216Z" fill="#3F3D56"/>
<path d="M144 9H9V84H144V9Z" fill="#F5F5F5"/>
<path d="M76.5 6C77.3284 6 78 5.55228 78 5C78 4.44772 77.3284 4 76.5 4C75.6716 4 75 4.44772 75 5C75 5.55228 75.6716 6 76.5 6Z" fill="#1B3F71"/>
<path d="M51 36H47C46.7349 35.9998 46.4807 35.9119 46.2932 35.7557C46.1057 35.5994 46.0003 35.3876 46 35.1667V31.8333C46.0003 31.6124 46.1057 31.4006 46.2932 31.2443C46.4807 31.0881 46.7349 31.0002 47 31H51C51.2651 31.0002 51.5193 31.0881 51.7068 31.2443C51.8943 31.4006 51.9997 31.6124 52 31.8333V35.1667C51.9997 35.3876 51.8943 35.5994 51.7068 35.7557C51.5193 35.9119 51.2651 35.9998 51 36ZM47 31.5556C46.9116 31.5557 46.8269 31.5849 46.7644 31.637C46.7019 31.6891 46.6668 31.7597 46.6667 31.8333V35.1667C46.6668 35.2403 46.7019 35.3109 46.7644 35.363C46.8269 35.4151 46.9116 35.4443 47 35.4444H51C51.0884 35.4443 51.1731 35.4151 51.2356 35.363C51.2981 35.3109 51.3332 35.2403 51.3333 35.1667V31.8333C51.3332 31.7597 51.2981 31.6891 51.2356 31.637C51.1731 31.5849 51.0884 31.5557 51 31.5556H47Z" fill="#3F3D56"/>
<path d="M105 51H92V55H105V51Z" fill="#1B3F71"/>
<path d="M106.236 54H93.7636C93.5612 53.9998 93.3671 53.9119 93.2239 53.7557C93.0807 53.5994 93.0002 53.3876 93 53.1667V49.8333C93.0002 49.6124 93.0807 49.4006 93.2239 49.2443C93.3671 49.0881 93.5612 49.0002 93.7636 49H106.236C106.439 49.0002 106.633 49.0881 106.776 49.2443C106.919 49.4006 107 49.6124 107 49.8333V53.1667C107 53.3876 106.919 53.5994 106.776 53.7557C106.633 53.9119 106.439 53.9998 106.236 54ZM93.7636 49.5556C93.6962 49.5557 93.6315 49.5849 93.5837 49.637C93.536 49.6891 93.5092 49.7597 93.5091 49.8333V53.1667C93.5092 53.2403 93.536 53.3109 93.5837 53.363C93.6315 53.4151 93.6962 53.4443 93.7636 53.4444H106.236C106.304 53.4443 106.369 53.4151 106.416 53.363C106.464 53.3109 106.491 53.2403 106.491 53.1667V49.8333C106.491 49.7597 106.464 49.6891 106.416 49.637C106.369 49.5849 106.304 49.5557 106.236 49.5556H93.7636Z" fill="#3F3D56"/>
<path d="M213 55H188V73H213V55Z" fill="#1B3F71"/>
<path d="M215 73H191C190.735 72.9997 190.481 72.8914 190.293 72.6989C190.106 72.5063 190 72.2453 190 71.973V55.027C190 54.7547 190.106 54.4937 190.293 54.3011C190.481 54.1086 190.735 54.0003 191 54H215C215.265 54.0003 215.519 54.1086 215.707 54.3011C215.894 54.4937 216 54.7547 216 55.027V71.973C216 72.2453 215.894 72.5063 215.707 72.6989C215.519 72.8914 215.265 72.9997 215 73ZM191 55.027V71.973H215.001L215 55.027H191Z" fill="#3F3D56"/>
<path d="M213 54H211.865C211.865 51.398 210.878 48.9026 209.122 47.0627C207.366 45.2228 204.984 44.1892 202.5 44.1892C200.016 44.1892 197.634 45.2228 195.878 47.0627C194.122 48.9026 193.135 51.398 193.135 54H192C192 51.0826 193.106 48.2847 195.075 46.2218C197.045 44.1589 199.715 43 202.5 43C205.285 43 207.955 44.1589 209.925 46.2218C211.894 48.2847 213 51.0826 213 54Z" fill="#3F3D56"/>
<path d="M206 61.3208C206.001 60.9171 205.842 60.5203 205.54 60.1697C205.238 59.819 204.803 59.5267 204.278 59.3216C203.754 59.1165 203.157 59.0057 202.547 59.0002C201.938 58.9947 201.337 59.0948 200.804 59.2904C200.271 59.486 199.824 59.7704 199.508 60.1155C199.192 60.4606 199.017 60.8543 199.001 61.2579C198.985 61.6614 199.129 62.0607 199.418 62.4162C199.706 62.7717 200.13 63.0711 200.647 63.2848V65.7728C200.647 65.934 200.695 66.0935 200.788 66.2424C200.881 66.3913 201.018 66.5266 201.19 66.6406C201.362 66.7545 201.566 66.8449 201.791 66.9066C202.016 66.9683 202.257 67 202.5 67C202.991 67 203.463 66.8707 203.81 66.6406C204.158 66.4104 204.353 66.0983 204.353 65.7728V63.2848C204.857 63.077 205.272 62.7876 205.56 62.444C205.849 62.1004 206 61.7138 206 61.3208Z" fill="white"/>
<path d="M156.943 180H33.0566C32.7765 180 32.5079 179.887 32.3098 179.687C32.1117 179.487 32.0003 179.215 32 178.932V118.068C32.0003 117.785 32.1117 117.513 32.3098 117.313C32.5079 117.113 32.7765 117 33.0566 117H156.943C157.224 117 157.492 117.113 157.69 117.313C157.888 117.513 158 117.785 158 118.068V178.932C158 179.215 157.888 179.487 157.69 179.687C157.492 179.887 157.224 180 156.943 180ZM33.0566 118.068V178.932H156.944L156.943 118.068H33.0566Z" fill="#3F3D56"/>
<path d="M38.5 126C39.3284 126 40 125.552 40 125C40 124.448 39.3284 124 38.5 124C37.6716 124 37 124.448 37 125C37 125.552 37.6716 126 38.5 126Z" fill="#3F3D56"/>
<path d="M44 126C45.1046 126 46 125.552 46 125C46 124.448 45.1046 124 44 124C42.8954 124 42 124.448 42 125C42 125.552 42.8954 126 44 126Z" fill="#3F3D56"/>
<path d="M49.5 126C50.8807 126 52 125.552 52 125C52 124.448 50.8807 124 49.5 124C48.1193 124 47 124.448 47 125C47 125.552 48.1193 126 49.5 126Z" fill="#3F3D56"/>
<path d="M106.213 154H70.7872C70.5785 154 70.3784 153.913 70.2308 153.758C70.0832 153.603 70.0002 153.394 70 153.175V143.825C70.0002 143.606 70.0832 143.397 70.2308 143.242C70.3784 143.087 70.5785 143 70.7872 143H106.213C106.421 143 106.622 143.087 106.769 143.242C106.917 143.397 107 143.606 107 143.825V153.175C107 153.394 106.917 153.603 106.769 153.758C106.622 153.913 106.421 154 106.213 154ZM70.7872 143.55C70.7177 143.55 70.651 143.579 70.6018 143.631C70.5526 143.682 70.5249 143.752 70.5248 143.825V153.175C70.5249 153.248 70.5526 153.318 70.6018 153.369C70.651 153.421 70.7177 153.45 70.7872 153.45H106.213C106.282 153.45 106.349 153.421 106.398 153.369C106.447 153.318 106.475 153.248 106.475 153.175V143.825C106.475 143.752 106.447 143.682 106.398 143.631C106.349 143.579 106.282 143.55 106.213 143.55H70.7872Z" fill="#3F3D56"/>
<path d="M116 155C118.761 155 121 152.761 121 150C121 147.239 118.761 145 116 145C113.239 145 111 147.239 111 150C111 152.761 113.239 155 116 155Z" fill="#1B3F71"/>
<path d="M117 154C116.011 154 115.044 153.677 114.222 153.073C113.4 152.469 112.759 151.61 112.381 150.605C112.002 149.6 111.903 148.494 112.096 147.427C112.289 146.36 112.765 145.38 113.464 144.611C114.164 143.842 115.055 143.318 116.025 143.106C116.994 142.893 118 143.002 118.913 143.419C119.827 143.835 120.608 144.54 121.157 145.444C121.707 146.349 122 147.412 122 148.5C121.998 149.958 121.471 151.356 120.534 152.387C119.597 153.418 118.326 153.998 117 154ZM117 143.579C116.115 143.579 115.25 143.868 114.515 144.408C113.779 144.949 113.205 145.718 112.867 146.617C112.528 147.516 112.44 148.505 112.612 149.46C112.785 150.415 113.211 151.291 113.837 151.98C114.462 152.668 115.259 153.137 116.127 153.326C116.995 153.516 117.895 153.419 118.712 153.046C119.529 152.674 120.228 152.043 120.72 151.234C121.211 150.425 121.474 149.473 121.474 148.5C121.472 147.195 121.001 145.944 120.162 145.022C119.323 144.099 118.186 143.58 117 143.579Z" fill="#3F3D56"/>
<path d="M118.577 150L116 147.831L116.753 147.198L118.435 148.613L123.129 143L124 143.516L118.577 150Z" fill="#3F3D56"/>
<path opacity="0.1" d="M116 84H9V14L116 84Z" fill="black"/>
<path d="M152.546 84.0244H139.556V83.1695C139.556 83.1472 139.551 83.1252 139.541 83.1046C139.532 83.0841 139.518 83.0654 139.501 83.0496C139.484 83.0339 139.464 83.0214 139.441 83.0129C139.418 83.0044 139.394 83 139.37 83H134.916C134.892 83 134.868 83.0044 134.845 83.0129C134.823 83.0214 134.802 83.0339 134.785 83.0496C134.768 83.0654 134.754 83.0841 134.745 83.1046C134.735 83.1252 134.73 83.1472 134.73 83.1695V84.0244H131.947V83.1695C131.947 83.1472 131.942 83.1252 131.933 83.1046C131.923 83.0841 131.91 83.0654 131.892 83.0496C131.875 83.0339 131.855 83.0214 131.832 83.0129C131.81 83.0044 131.786 83 131.761 83H127.307C127.283 83 127.259 83.0044 127.236 83.0129C127.214 83.0214 127.193 83.0339 127.176 83.0496C127.159 83.0654 127.145 83.0841 127.136 83.1046C127.127 83.1252 127.122 83.1472 127.122 83.1695V84.0244H124.338V83.1695C124.338 83.1472 124.333 83.1252 124.324 83.1046C124.315 83.0841 124.301 83.0654 124.284 83.0496C124.266 83.0339 124.246 83.0214 124.224 83.0129C124.201 83.0044 124.177 83 124.152 83H119.699C119.674 83 119.65 83.0044 119.628 83.0129C119.605 83.0214 119.585 83.0339 119.567 83.0496C119.55 83.0654 119.536 83.0841 119.527 83.1046C119.518 83.1252 119.513 83.1472 119.513 83.1695V84.0244H116.729V83.1695C116.729 83.1472 116.725 83.1252 116.715 83.1046C116.706 83.0841 116.692 83.0654 116.675 83.0496C116.658 83.0339 116.637 83.0214 116.615 83.0129C116.592 83.0044 116.568 83 116.544 83H112.09C112.065 83 112.041 83.0044 112.019 83.0129C111.996 83.0214 111.976 83.0339 111.959 83.0496C111.941 83.0654 111.928 83.0841 111.918 83.1046C111.909 83.1252 111.904 83.1472 111.904 83.1695V84.0244H109.121V83.1695C109.121 83.1472 109.116 83.1252 109.106 83.1046C109.097 83.0841 109.083 83.0654 109.066 83.0496C109.049 83.0339 109.029 83.0214 109.006 83.0129C108.983 83.0044 108.959 83 108.935 83H104.481C104.457 83 104.433 83.0044 104.41 83.0129C104.388 83.0214 104.367 83.0339 104.35 83.0496C104.333 83.0654 104.319 83.0841 104.31 83.1046C104.3 83.1252 104.296 83.1472 104.296 83.1695V84.0244H101.512V83.1695C101.512 83.1472 101.507 83.1252 101.498 83.1046C101.488 83.0841 101.475 83.0654 101.457 83.0496C101.44 83.0339 101.42 83.0214 101.397 83.0129C101.375 83.0044 101.351 83 101.326 83H96.8723C96.848 83 96.8238 83.0044 96.8013 83.0129C96.7788 83.0214 96.7584 83.0339 96.7411 83.0496C96.7239 83.0654 96.7102 83.0841 96.7009 83.1046C96.6916 83.1252 96.6868 83.1472 96.6868 83.1695V84.0244H93.9031V83.1695C93.9031 83.1472 93.8983 83.1252 93.889 83.1046C93.8796 83.0841 93.866 83.0654 93.8487 83.0496C93.8315 83.0339 93.811 83.0214 93.7885 83.0129C93.766 83.0044 93.7419 83 93.7175 83H58.8286C58.8042 83 58.7801 83.0044 58.7576 83.0129C58.7351 83.0214 58.7146 83.0339 58.6974 83.0496C58.6801 83.0654 58.6665 83.0841 58.6572 83.1046C58.6478 83.1252 58.643 83.1472 58.643 83.1695V84.0244H55.8593V83.1695C55.8593 83.1472 55.8545 83.1252 55.8452 83.1046C55.8359 83.0841 55.8222 83.0654 55.805 83.0496C55.7877 83.0339 55.7673 83.0214 55.7448 83.0129C55.7223 83.0044 55.6981 83 55.6738 83H51.2199C51.1955 83 51.1714 83.0044 51.1488 83.0129C51.1263 83.0214 51.1059 83.0339 51.0886 83.0496C51.0714 83.0654 51.0577 83.0841 51.0484 83.1046C51.0391 83.1252 51.0343 83.1472 51.0343 83.1695V84.0244H48.2506V83.1695C48.2506 83.1472 48.2458 83.1252 48.2365 83.1046C48.2271 83.0841 48.2135 83.0654 48.1962 83.0496C48.179 83.0339 48.1585 83.0214 48.136 83.0129C48.1135 83.0044 48.0894 83 48.065 83H43.6111C43.5867 83 43.5626 83.0044 43.5401 83.0129C43.5176 83.0214 43.4971 83.0339 43.4799 83.0496C43.4627 83.0654 43.449 83.0841 43.4397 83.1046C43.4303 83.1252 43.4255 83.1472 43.4255 83.1695V84.0244H40.6418V83.1695C40.6418 83.1472 40.637 83.1252 40.6277 83.1046C40.6184 83.0841 40.6047 83.0654 40.5875 83.0496C40.5703 83.0339 40.5498 83.0214 40.5273 83.0129C40.5048 83.0044 40.4806 83 40.4563 83H36.0024C35.978 83 35.9539 83.0044 35.9314 83.0129C35.9088 83.0214 35.8884 83.0339 35.8711 83.0496C35.8539 83.0654 35.8402 83.0841 35.8309 83.1046C35.8216 83.1252 35.8168 83.1472 35.8168 83.1695V84.0244H33.0331V83.1695C33.0331 83.1472 33.0283 83.1252 33.019 83.1046C33.0096 83.0841 32.996 83.0654 32.9787 83.0496C32.9615 83.0339 32.9411 83.0214 32.9185 83.0129C32.896 83.0044 32.8719 83 32.8475 83H28.3936C28.3692 83 28.3451 83.0044 28.3226 83.0129C28.3001 83.0214 28.2796 83.0339 28.2624 83.0496C28.2452 83.0654 28.2315 83.0841 28.2222 83.1046C28.2128 83.1252 28.208 83.1472 28.208 83.1695V84.0244H25.4244V83.1695C25.4244 83.1472 25.4196 83.1252 25.4102 83.1046C25.4009 83.0841 25.3872 83.0654 25.37 83.0496C25.3528 83.0339 25.3323 83.0214 25.3098 83.0129C25.2873 83.0044 25.2632 83 25.2388 83H20.7849C20.7605 83 20.7364 83.0044 20.7139 83.0129C20.6913 83.0214 20.6709 83.0339 20.6536 83.0496C20.6364 83.0654 20.6227 83.0841 20.6134 83.1046C20.6041 83.1252 20.5993 83.1472 20.5993 83.1695V84.0244H17.8156V83.1695C17.8156 83.1472 17.8108 83.1252 17.8015 83.1046C17.7922 83.0841 17.7785 83.0654 17.7612 83.0496C17.744 83.0339 17.7236 83.0214 17.701 83.0129C17.6785 83.0044 17.6544 83 17.63 83H13.1761C13.1518 83 13.1276 83.0044 13.1051 83.0129C13.0826 83.0214 13.0621 83.0339 13.0449 83.0496C13.0277 83.0654 13.014 83.0841 13.0047 83.1046C12.9953 83.1252 12.9905 83.1472 12.9905 83.1695V84.0244H4.4539C3.86901 84.0244 3.28984 84.1296 2.74947 84.334C2.20909 84.5385 1.7181 84.8381 1.30452 85.2159C0.890933 85.5937 0.562861 86.0421 0.339032 86.5357C0.115203 87.0292 -3.46017e-07 87.5582 0 88.0925V89.9319C2.79526e-06 91.0109 0.469253 92.0456 1.30452 92.8085C2.13979 93.5714 3.27265 94 4.4539 94H152.546C153.131 94 153.71 93.8948 154.251 93.6903C154.791 93.4859 155.282 93.1862 155.695 92.8085C156.109 92.4307 156.437 91.9823 156.661 91.4887C156.885 90.9952 157 90.4662 157 89.9319V88.0925C157 87.5582 156.885 87.0292 156.661 86.5357C156.437 86.0421 156.109 85.5936 155.695 85.2159C155.282 84.8381 154.791 84.5385 154.251 84.334C153.71 84.1296 153.131 84.0244 152.546 84.0244Z" fill="#3F3D56"/>
<path d="M114.189 59H42.8111C42.5961 58.9998 42.3899 58.9152 42.2378 58.7649C42.0858 58.6146 42.0002 58.4108 42 58.1983V28.8017C42.0002 28.5892 42.0858 28.3854 42.2378 28.2351C42.3899 28.0848 42.5961 28.0002 42.8111 28H114.189C114.404 28.0002 114.61 28.0848 114.762 28.2351C114.914 28.3854 115 28.5892 115 28.8017V58.1983C115 58.4108 114.914 58.6146 114.762 58.7649C114.61 58.9152 114.404 58.9998 114.189 59ZM42.8111 28.5345C42.7394 28.5346 42.6707 28.5628 42.62 28.6129C42.5693 28.663 42.5408 28.7309 42.5407 28.8017V58.1983C42.5408 58.2691 42.5693 58.337 42.62 58.3871C42.6707 58.4372 42.7394 58.4654 42.8111 58.4655H114.189C114.261 58.4654 114.329 58.4372 114.38 58.3871C114.431 58.337 114.459 58.2691 114.459 58.1983V28.8017C114.459 28.7309 114.431 28.663 114.38 28.6129C114.329 28.5628 114.261 28.5346 114.189 28.5345H42.8111Z" fill="#3F3D56"/>
<path d="M51 46H47C46.7349 45.9997 46.4807 45.8943 46.2932 45.7068C46.1057 45.5193 46.0003 45.2651 46 45V41C46.0003 40.7349 46.1057 40.4807 46.2932 40.2932C46.4807 40.1057 46.7349 40.0003 47 40H51C51.2651 40.0003 51.5193 40.1057 51.7068 40.2932C51.8943 40.4807 51.9997 40.7349 52 41V45C51.9997 45.2651 51.8943 45.5193 51.7068 45.7068C51.5193 45.8943 51.2651 45.9997 51 46ZM47 40.6667C46.9116 40.6668 46.8269 40.7019 46.7644 40.7644C46.7019 40.8269 46.6668 40.9116 46.6667 41V45C46.6668 45.0884 46.7019 45.1731 46.7644 45.2356C46.8269 45.2981 46.9116 45.3332 47 45.3333H51C51.0884 45.3332 51.1731 45.2981 51.2356 45.2356C51.2981 45.1731 51.3332 45.0884 51.3333 45V41C51.3332 40.9116 51.2981 40.8269 51.2356 40.7644C51.1731 40.7019 51.0884 40.6668 51 40.6667H47Z" fill="#3F3D56"/>
<path d="M264 72H69V73H264V72Z" fill="#3F3D56"/>
<path d="M69 75C71.2091 75 73 73.433 73 71.5C73 69.567 71.2091 68 69 68C66.7909 68 65 69.567 65 71.5C65 73.433 66.7909 75 69 75Z" fill="#3F3D56"/>
<path d="M264.5 75C265.881 75 267 73.6569 267 72C267 70.3431 265.881 69 264.5 69C263.119 69 262 70.3431 262 72C262 73.6569 263.119 75 264.5 75Z" fill="#3F3D56"/>
<path d="M279.5 134C280.881 134 282 132.881 282 131.5C282 130.119 280.881 129 279.5 129C278.119 129 277 130.119 277 131.5C277 132.881 278.119 134 279.5 134Z" fill="#3F3D56"/>
<path d="M85 134C86.6569 134 88 132.881 88 131.5C88 130.119 86.6569 129 85 129C83.3431 129 82 130.119 82 131.5C82 132.881 83.3431 134 85 134Z" fill="#3F3D56"/>
</svg>
