<svg width="118" height="103" viewBox="0 0 118 103" fill="none" xmlns="http://www.w3.org/2000/svg">
<path d="M57.7511 8.67733L43.7655 23.3548C43.738 23.3255 43.7101 23.2931 43.6809 23.2661C43.373 22.9428 43.0578 22.6267 42.7325 22.3217C42.6479 22.2329 42.5561 22.1513 42.466 22.0678C42.051 21.6824 41.6199 21.3086 41.1787 20.949C41.0518 20.8473 40.9249 20.7457 40.7979 20.6475C40.5175 20.422 40.2269 20.208 39.9362 19.9971C39.7353 19.8484 39.5276 19.7032 39.3203 19.5652L39.289 19.5434C39.0639 19.3871 38.8355 19.2379 38.607 19.0928C38.327 18.9183 38.0465 18.7478 37.761 18.5809C37.6155 18.4921 37.4648 18.4064 37.3181 18.3265C37.214 18.2683 37.1103 18.2137 37.0063 18.1556C36.9682 18.1374 36.9301 18.1156 36.8959 18.0978C36.5634 17.9163 36.2241 17.7453 35.8806 17.5855C35.7664 17.5309 35.6483 17.4767 35.5307 17.4221C35.3095 17.3205 35.0844 17.2188 34.8594 17.1242C34.617 17.019 34.3716 16.9173 34.1258 16.8228C33.88 16.7282 33.6343 16.6341 33.3885 16.5466C33.1046 16.445 32.8208 16.3504 32.5335 16.2598L47.5191 0.528328C47.8323 0.195361 48.2579 0.0055059 48.7036 8.20033e-06H48.7125C48.9163 -0.000569017 49.1192 0.0293291 49.3149 0.0888014H49.3192C49.5463 0.155137 49.7529 0.28298 49.9182 0.459513L50.7219 1.30305L57.6597 8.58409L57.7511 8.67733Z" fill="#2BCECD"/>
<path d="M71.8957 14.7998L53.0821 34.5443L51.9471 35.7359C51.909 35.5942 51.8675 35.4562 51.8261 35.3181C51.8155 35.2725 51.8014 35.228 51.7838 35.1849C51.7288 34.9962 51.6734 34.8071 51.6074 34.6184C51.5825 34.5194 51.5513 34.4222 51.5139 34.3276C51.4584 34.146 51.3963 33.9644 51.3307 33.7829C51.2884 33.6665 51.2461 33.5507 51.2038 33.4379C51.1484 33.2816 51.0896 33.1271 51.0274 32.9766C50.9825 32.8567 50.9373 32.7369 50.8857 32.6214C50.7956 32.3928 50.6987 32.1677 50.6018 31.9462C50.5223 31.757 50.4389 31.5684 50.348 31.3828C50.1822 31.009 50.0019 30.6383 49.8116 30.2729C49.727 30.1024 49.6386 29.935 49.5451 29.7681C49.5281 29.7352 49.5108 29.7028 49.4934 29.67C49.4088 29.5101 49.3204 29.3539 49.2269 29.194C49.0746 28.9254 48.9152 28.6568 48.7527 28.3913C48.6525 28.228 48.5518 28.0646 48.4481 27.903C48.4274 27.8741 48.4058 27.8413 48.3893 27.8142C48.2404 27.5851 48.0932 27.36 47.9358 27.1385C47.9358 27.1349 47.9324 27.1349 47.9324 27.1309C47.7734 26.8987 47.6105 26.6701 47.4409 26.4446C47.2852 26.2306 47.1228 26.0161 46.9599 25.8092L46.9176 25.7546C46.7687 25.5695 46.6215 25.3839 46.4713 25.2023C46.3211 25.0208 46.1667 24.8392 46.0106 24.6611C45.9103 24.5448 45.8067 24.429 45.7064 24.3162C45.5643 24.1564 45.4188 24.0001 45.2737 23.8478L60.9827 7.36114L61.866 6.43725C61.9501 6.34933 62.0535 6.28452 62.1672 6.24856C62.389 6.16389 62.6232 6.1209 62.8593 6.12159C62.8834 6.12159 62.9079 6.12159 62.9316 6.12159C63.4058 6.14311 63.8547 6.35253 64.1876 6.70762L64.6415 7.18444L71.6364 14.5276L71.8957 14.7998Z" fill="#FBB724"/>
<path d="M90.134 27.126C90.1683 27.1621 90.1907 27.2086 90.1981 27.259C90.2055 27.3093 90.1975 27.3608 90.1753 27.406C90.153 27.4513 90.1177 27.488 90.0743 27.5108C90.031 27.5336 89.9818 27.5414 89.9339 27.5331L89.7761 27.5056C89.2152 27.4035 88.6513 27.3164 88.0802 27.2441C87.793 27.2077 87.5023 27.1748 87.2113 27.146C86.9202 27.1171 86.6406 27.0878 86.3534 27.066H86.336C85.7996 27.0261 85.2594 26.9968 84.7162 26.9826C84.429 26.9715 84.1384 26.9679 83.8473 26.9679C83.7885 26.9644 83.7297 26.9644 83.6709 26.9644C83.5808 26.9644 83.4979 26.9644 83.4078 26.9679H83.4044C82.8967 26.9715 82.3891 26.9861 81.892 27.015C81.771 27.0185 81.6496 27.0261 81.5286 27.0332C79.9379 27.1275 78.355 27.3338 76.7906 27.6507L76.5791 27.6951C76.3253 27.7458 76.074 27.8039 75.8244 27.8621C75.6793 27.8949 75.5304 27.9313 75.3815 27.9677C75.1776 28.0148 74.9767 28.0694 74.7723 28.1236C74.527 28.1893 74.2812 28.2545 74.0388 28.3269C73.7427 28.4108 73.4465 28.5014 73.153 28.5959C72.9414 28.6612 72.7299 28.7291 72.5184 28.8064C71.9926 28.984 71.4735 29.1735 70.9578 29.3804C70.7742 29.4492 70.5911 29.5221 70.4108 29.5984C68.7373 30.2887 67.1163 31.112 65.562 32.0611C65.3716 32.1734 65.1851 32.2933 64.9981 32.4132C64.4029 32.7874 63.8212 33.1834 63.2501 33.5937C63.0081 33.7681 62.7691 33.9462 62.531 34.1242C62.4235 34.2077 62.3161 34.2876 62.209 34.3746C62.036 34.5078 61.8664 34.641 61.6967 34.7742L61.5931 34.863C61.4027 35.0121 61.2157 35.1644 61.0321 35.3282C60.9319 35.4081 60.835 35.4916 60.736 35.5786C60.0592 36.1598 59.4001 36.7698 58.7668 37.402C58.6593 37.5108 58.5519 37.6164 58.4449 37.7287C58.3179 37.8562 58.191 37.9867 58.0709 38.1177C57.9808 38.2065 57.8911 38.3028 57.8078 38.3974C57.666 38.5425 57.5311 38.6913 57.3961 38.844C57.3441 38.8986 57.2959 38.9528 57.2472 39.0074C57.2299 39.0291 57.2092 39.0518 57.1918 39.0726C57.0649 39.2143 56.938 39.3559 56.8183 39.5015C56.6986 39.6471 56.5691 39.7919 56.4477 39.937C55.825 40.6856 55.2294 41.4554 54.6655 42.2545C54.5808 42.3744 54.4924 42.4943 54.4091 42.6177L54.4053 42.623C54.3775 42.6624 54.339 42.692 54.2948 42.7077C54.2506 42.7235 54.2028 42.7247 54.1579 42.7113C54.113 42.6978 54.0731 42.6703 54.0436 42.6324C54.014 42.5945 53.9961 42.548 53.9924 42.4992C53.8541 40.6726 53.5448 38.8648 53.0689 37.1019C53.0576 37.0607 53.0571 37.0172 53.0673 36.9757C53.0774 36.9342 53.098 36.8964 53.1269 36.8661L54.1671 35.7749L75.035 13.8745C75.3483 13.5418 75.7739 13.352 76.2195 13.3462H76.2394C76.7345 13.3524 77.2073 13.5629 77.5555 13.9322L78.2395 14.6501L85.9574 22.7498L90.134 27.126Z" fill="#FD4418"/>
<path d="M100.61 31.6601L93.3368 39.2914C93.2964 39.3338 93.2463 39.3647 93.1913 39.3811C93.1362 39.3975 93.0782 39.3989 93.0225 39.3851H93.0153C91.0758 38.8702 89.0985 38.527 87.1042 38.3591C87.0141 38.3516 86.9278 38.3445 86.8377 38.3409C86.6161 38.3192 86.3914 38.3045 86.1664 38.2934H86.163C85.9413 38.2792 85.7163 38.2681 85.495 38.261C85.2738 38.2539 85.0449 38.2428 84.8182 38.2392C84.5914 38.2357 84.3651 38.2317 84.1366 38.2317C83.8976 38.2317 83.6624 38.2357 83.4272 38.2392C83.3752 38.2392 83.3265 38.2428 83.2749 38.2428C83.0879 38.2463 82.901 38.2539 82.7178 38.261C82.6069 38.2646 82.4961 38.2717 82.3887 38.2757C82.0012 38.2934 81.617 38.32 81.2329 38.3516C80.6584 38.3992 80.0873 38.4611 79.5196 38.5371C78.3117 38.7005 77.1223 38.9244 75.9513 39.2089C75.7127 39.267 75.4737 39.3252 75.2385 39.3904C75.038 39.4415 74.8404 39.4957 74.6433 39.5538C74.3421 39.6377 74.0447 39.7283 73.7469 39.8229C73.5565 39.881 73.3661 39.9427 73.1792 40.008C72.9372 40.0879 72.6948 40.1714 72.4558 40.2584C72.3589 40.2913 72.262 40.3277 72.1652 40.3641C71.3275 40.6691 70.5073 41.0105 69.701 41.3808C69.514 41.4647 69.3274 41.5517 69.1438 41.6427C68.8947 41.7586 68.6455 41.8824 68.3963 42.0059C68.192 42.1111 67.9881 42.2198 67.7838 42.3291C67.5693 42.4414 67.3582 42.5577 67.1467 42.6776C66.9352 42.7974 66.7236 42.9138 66.5172 43.0372C65.87 43.4186 65.2295 43.8217 64.6068 44.243C64.3229 44.4357 64.0424 44.6319 63.7607 44.8277C63.5915 44.9516 63.4252 45.075 63.259 45.1984C62.9476 45.4271 62.6359 45.6632 62.3313 45.9088C61.5805 46.5046 60.8537 47.1306 60.1509 47.7867C59.0635 48.7938 58.0369 49.871 57.0772 51.0121C54.5044 54.0526 52.4139 57.5072 50.8856 61.2438C50.7938 61.4745 50.6391 61.6716 50.4408 61.8102C50.2425 61.9487 50.0096 62.0226 49.7713 62.0225H47.0026C46.8912 62.0225 46.7805 62.0053 46.6739 61.9715C46.6631 61.9708 46.6526 61.9684 46.6426 61.9644C46.6407 61.9646 46.6389 61.9644 46.6371 61.9638C46.6353 61.9632 46.6337 61.9622 46.6324 61.9608C46.4302 61.8924 46.2487 61.7695 46.106 61.6044C45.9632 61.4393 45.8642 61.2378 45.8189 61.02C45.801 60.9317 45.7918 60.8417 45.7914 60.7514C45.7901 60.6867 45.7958 60.6221 45.8083 60.5588C45.8295 60.4753 45.8506 60.3954 45.8709 60.3119C45.909 60.1592 45.9471 60.0065 45.9852 59.8506V59.8471C46.501 57.6471 46.7612 55.3897 46.7602 53.1241C46.7598 52.0294 46.6998 50.9356 46.5804 49.8481C46.3335 47.602 45.8247 45.3963 45.0655 43.2805C45.0173 43.15 44.9724 43.019 44.9204 42.8885C43.3641 38.7472 40.8906 35.0543 37.7047 32.1152C37.6738 32.0863 37.6425 32.057 37.6112 32.0317C34.2241 28.926 30.1395 26.7762 25.7421 25.7847C25.6938 25.7736 25.6452 25.7625 25.5965 25.7554C24.8215 25.5809 24.036 25.4446 23.2364 25.3487C22.1991 25.2201 21.1555 25.1557 20.111 25.156C19.831 25.156 19.5539 25.1596 19.2772 25.1707C19.209 25.1706 19.1408 25.1743 19.0729 25.1818C18.803 25.1889 18.5331 25.2035 18.2666 25.2213C18.0928 25.1325 17.9465 24.9941 17.8443 24.8219C17.742 24.6498 17.6881 24.4509 17.6887 24.2481C17.6887 24.133 17.7323 24.0227 17.8097 23.9413L25.072 16.318C25.4396 15.9315 25.9383 15.7137 26.4587 15.7124H26.5729C29.113 15.7175 31.6394 16.1028 34.0759 16.8565C34.1211 16.8676 34.166 16.8823 34.2108 16.8965C34.4981 16.9853 34.7819 17.082 35.0658 17.1837C35.3115 17.2725 35.5607 17.3653 35.8031 17.4594C36.0455 17.5535 36.2943 17.6556 36.5367 17.7609C36.7617 17.8554 36.9868 17.9571 37.208 18.0588C37.3256 18.1134 37.4436 18.168 37.5579 18.2221C37.9005 18.386 38.2347 18.5564 38.5732 18.7345C38.6074 18.7527 38.6455 18.7744 38.6836 18.7926C38.7876 18.8508 38.8913 18.905 38.9953 18.9631C39.1443 19.043 39.2915 19.1305 39.4383 19.2175C39.7255 19.3844 40.006 19.5554 40.2843 19.7299C40.5128 19.875 40.7412 20.0238 40.9663 20.18L40.9976 20.2018C41.2053 20.3399 41.4126 20.485 41.6135 20.6342C41.9041 20.8447 42.1948 21.0591 42.4752 21.2842C42.6021 21.3823 42.7312 21.484 42.856 21.5856C43.2955 21.9452 43.7283 22.3195 44.1433 22.7044C44.2334 22.7879 44.3235 22.8714 44.4098 22.9588C44.7351 23.2638 45.0503 23.5804 45.3582 23.9031C45.3895 23.932 45.417 23.9648 45.4428 23.9919C45.5884 24.1447 45.7339 24.3027 45.8756 24.4608C45.9759 24.5731 46.0799 24.6894 46.1802 24.8057C46.3359 24.9833 46.4881 25.1653 46.6404 25.3469C46.7927 25.5285 46.9366 25.7136 47.0867 25.8988L47.1291 25.9534C47.2915 26.1603 47.4544 26.3747 47.61 26.5891C47.7793 26.8142 47.9421 27.0429 48.1016 27.2755C48.1016 27.2791 48.105 27.2791 48.105 27.2826C48.2607 27.5046 48.4096 27.7297 48.5581 27.9583C48.5754 27.9876 48.5961 28.02 48.6173 28.0493C48.7209 28.2092 48.8212 28.3725 48.9219 28.5377C49.0843 28.8041 49.2434 29.0705 49.3957 29.3404C49.4892 29.5002 49.5759 29.6565 49.6622 29.8163L49.7142 29.9144C49.8077 30.0814 49.894 30.2483 49.9807 30.4192C50.1677 30.7824 50.3475 31.1527 50.5171 31.5291C50.6039 31.7143 50.6864 31.9034 50.771 32.0921C50.8678 32.3141 50.9647 32.5387 51.0548 32.7678C51.1069 32.8841 51.1517 33.004 51.197 33.123C51.2591 33.2757 51.318 33.4284 51.3734 33.5843C51.4157 33.697 51.458 33.8133 51.4977 33.9297C51.5637 34.1112 51.6247 34.2928 51.6813 34.4744C51.7185 34.5689 51.7498 34.6659 51.7748 34.7648C51.8404 34.9539 51.8958 35.1426 51.9512 35.3317C51.969 35.3747 51.9832 35.4193 51.9935 35.4649C52.0358 35.603 52.0781 35.741 52.1149 35.8827C52.6707 37.9031 53.0074 39.9829 53.1184 42.0827C53.2394 41.8975 53.3642 41.7159 53.4924 41.5344C53.577 41.4109 53.6616 41.2911 53.7462 41.1712C54.3105 40.3721 54.9057 39.6022 55.5284 38.8537C55.6498 38.7085 55.7742 38.5633 55.899 38.4182C56.0238 38.273 56.1448 38.1309 56.2725 37.9893C56.2899 37.9675 56.3106 37.9449 56.328 37.924C56.3766 37.8694 56.4248 37.8153 56.4769 37.7607C56.6118 37.6079 56.7468 37.4592 56.8889 37.314C56.9735 37.2195 57.0619 37.1249 57.1516 37.0343C57.273 36.9011 57.3974 36.7728 57.5256 36.6454C57.6326 36.5331 57.7401 36.4274 57.8475 36.3186C58.4821 35.6864 59.1382 35.0755 59.8167 34.4953C59.917 34.4065 60.0139 34.3243 60.1129 34.2449C60.2965 34.0811 60.4834 33.9288 60.6738 33.7796L60.7775 33.6908C60.9467 33.5576 61.1159 33.4244 61.2898 33.2912C61.3972 33.2024 61.5042 33.1243 61.6117 33.0408C61.8503 32.8633 62.0893 32.6857 62.3308 32.5081C62.9019 32.0979 63.4836 31.7018 64.0788 31.3276C64.2658 31.2077 64.4528 31.0878 64.6432 30.9755C66.1972 30.0263 67.818 29.203 69.4916 28.5128C69.6718 28.4365 69.855 28.3637 70.0386 28.2948C70.5542 28.088 71.0733 27.8988 71.5996 27.7208C71.8111 27.6449 72.0226 27.5756 72.2341 27.5104C72.5302 27.4158 72.8226 27.3252 73.1199 27.2413C73.3623 27.1689 73.6081 27.1037 73.8539 27.038C74.0578 26.9838 74.2588 26.9292 74.4627 26.8817C74.6116 26.8457 74.7588 26.8093 74.906 26.7765C75.1552 26.7183 75.4077 26.6602 75.6603 26.6095L75.8718 26.5652C77.4362 26.2482 79.0191 26.0419 80.6098 25.9476C80.7312 25.9401 80.8522 25.9329 80.9732 25.9294C81.4715 25.9005 81.977 25.885 82.4855 25.8823H82.4893C82.579 25.8783 82.6624 25.8783 82.752 25.8783C82.8108 25.8783 82.8701 25.8783 82.9289 25.8823C83.2195 25.8823 83.5101 25.8859 83.7974 25.8965C84.3411 25.9113 84.881 25.9393 85.4172 25.9805H85.4345C85.7218 26.0022 86.0056 26.0275 86.2929 26.0604C86.5801 26.0932 86.8741 26.1221 87.1613 26.158C87.7324 26.2308 88.2978 26.318 88.8573 26.4195C89.1534 26.4706 89.4457 26.5252 89.7364 26.5869C89.9233 26.6233 90.1065 26.6633 90.2901 26.7068L90.6983 26.8013C93.3707 27.4259 95.9652 28.3728 98.4302 29.6232C98.4336 29.6232 98.7449 29.7866 98.7796 29.8048C98.9805 29.9029 99.1777 30.0081 99.3748 30.1156C99.5791 30.2279 99.7835 30.3406 99.9874 30.457C100.133 30.5404 100.275 30.6239 100.417 30.7114C100.565 30.8539 100.67 31.0392 100.718 31.2441C100.736 31.3173 100.736 31.3943 100.717 31.4672C100.698 31.5402 100.661 31.6067 100.61 31.6601Z" fill="#1B3F71"/>
<path d="M30.662 71.8252C31.604 71.8252 32.351 72.5723 32.351 73.4492C32.351 73.774 32.2536 74.1313 32.1561 74.3912L26.2447 93.5219C25.9524 94.3664 25.2703 94.8211 24.3609 94.8211C23.4515 94.8211 22.8343 94.3664 22.542 93.5219L16.858 78.1264L11.174 93.5219C10.8492 94.3664 10.2321 94.8211 9.32266 94.8211C8.41322 94.8211 7.73113 94.3664 7.47129 93.5219L1.55993 74.3912C1.46249 74.1313 1.33257 73.774 1.33257 73.4492C1.33257 72.5723 2.07961 71.8252 3.05401 71.8252C3.83353 71.8252 4.54809 72.28 4.74297 72.9296L9.45258 89.1371L15.2665 72.962C15.5913 72.15 16.1759 71.8252 16.8255 71.8252C17.5076 71.8252 18.1247 72.15 18.4171 72.962L24.2635 89.1371L28.9731 72.9296C29.1679 72.28 29.8825 71.8252 30.662 71.8252ZM37.2032 74.586C36.2613 74.586 35.4493 73.8065 35.4493 72.8646C35.4493 71.9227 36.2613 71.1432 37.2032 71.1432C38.1451 71.1432 38.9571 71.9227 38.9571 72.8646C38.9571 73.8065 38.1451 74.586 37.2032 74.586ZM37.2032 77.6716C38.1451 77.6716 38.9246 78.4512 38.9246 79.4256V93.0997C38.9246 94.0741 38.1451 94.8536 37.2032 94.8536C36.2613 94.8536 35.4818 94.0741 35.4818 93.0997V79.4256C35.4818 78.4512 36.2613 77.6716 37.2032 77.6716ZM48.4588 77.5742C50.7974 77.5742 52.8111 78.5161 53.8505 80.1076C54.0454 80.4 54.3052 80.7572 54.3052 81.3094C54.3052 82.1214 53.6881 82.6086 52.9086 82.6086C52.3889 82.6086 51.9017 82.3812 51.4145 81.7316C50.7649 80.9196 49.8554 80.3675 48.5238 80.3675C46.8998 80.3675 45.9254 81.1795 45.9254 82.3488C45.9254 83.1608 46.3801 83.9403 48.1015 84.4275L50.1153 84.9796C52.8761 85.7267 54.9548 86.9609 54.9548 89.6892C54.9548 93.0997 51.7393 94.8211 48.3614 94.8211C45.5356 94.8211 43.5543 93.5869 42.7098 92.2552C42.5474 92.0278 42.0277 91.3782 42.0277 90.5987C42.0277 89.9166 42.45 89.202 43.3594 89.202C44.1065 89.202 44.4962 89.6568 44.821 90.144C45.633 91.5081 46.9647 91.9628 48.3614 91.9628C50.2452 91.9628 51.5444 91.1833 51.5444 89.8841C51.5444 88.9097 50.8623 88.1952 49.2383 87.7404L47.0622 87.1558C43.9116 86.2788 42.5474 84.5899 42.5474 82.3812C42.5474 79.3281 45.3082 77.5742 48.4588 77.5742ZM67.2898 77.6067C70.4404 77.6067 73.526 79.588 73.526 85.1096V93.0997C73.526 94.0416 72.779 94.8211 71.837 94.8211C70.8951 94.8211 70.1156 94.0416 70.1156 93.0997V85.1096C70.1156 81.8616 68.2642 80.5624 66.153 80.5624C63.035 80.5624 61.6708 83.3556 61.4759 84.7523V93.0997C61.4759 94.0416 60.6964 94.8211 59.7545 94.8211C58.8126 94.8211 58.033 94.0416 58.033 93.0997V73.1894C58.033 72.2475 58.8126 71.468 59.7545 71.468C60.6964 71.468 61.4759 72.2475 61.4759 73.1894V81.5692C61.6383 80.4324 63.5871 77.6067 67.2898 77.6067ZM80.8561 93.0997C80.8561 94.0416 80.0766 94.8211 79.1347 94.8211C78.1927 94.8211 77.4132 94.0416 77.4132 93.0997V73.1894C77.4132 72.2475 78.1927 71.468 79.1347 71.468C80.0766 71.468 80.8561 72.2475 80.8561 73.1894V93.0997ZM86.4942 74.586C85.5522 74.586 84.7402 73.8065 84.7402 72.8646C84.7402 71.9227 85.5522 71.1432 86.4942 71.1432C87.4361 71.1432 88.2481 71.9227 88.2481 72.8646C88.2481 73.8065 87.4361 74.586 86.4942 74.586ZM86.4942 77.6716C87.4361 77.6716 88.2156 78.4512 88.2156 79.4256V93.0997C88.2156 94.0741 87.4361 94.8536 86.4942 94.8536C85.5522 94.8536 84.7727 94.0741 84.7727 93.0997V79.4256C84.7727 78.4512 85.5522 77.6716 86.4942 77.6716ZM97.7498 77.5742C100.088 77.5742 102.102 78.5161 103.141 80.1076C103.336 80.4 103.596 80.7572 103.596 81.3094C103.596 82.1214 102.979 82.6086 102.2 82.6086C101.68 82.6086 101.193 82.3812 100.705 81.7316C100.056 80.9196 99.1464 80.3675 97.8147 80.3675C96.1907 80.3675 95.2163 81.1795 95.2163 82.3488C95.2163 83.1608 95.671 83.9403 97.3925 84.4275L99.4062 84.9796C102.167 85.7267 104.246 86.9609 104.246 89.6892C104.246 93.0997 101.03 94.8211 97.6523 94.8211C94.8266 94.8211 92.8453 93.5869 92.0008 92.2552C91.8384 92.0278 91.3187 91.3782 91.3187 90.5987C91.3187 89.9166 91.741 89.202 92.6504 89.202C93.3974 89.202 93.7872 89.6568 94.112 90.144C94.924 91.5081 96.2557 91.9628 97.6523 91.9628C99.5362 91.9628 100.835 91.1833 100.835 89.8841C100.835 88.9097 100.153 88.1952 98.5293 87.7404L96.3531 87.1558C93.2026 86.2788 91.8384 84.5899 91.8384 82.3812C91.8384 79.3281 94.5992 77.5742 97.7498 77.5742ZM114.152 91.703C114.964 91.5731 115.549 92.0928 115.549 92.9048C115.549 94.2365 114.022 94.8211 112.204 94.8211C110.255 94.8211 108.338 94.139 108.338 90.4038V80.5299H107.104C106.26 80.5299 105.708 79.9777 105.708 79.1332C105.708 78.3212 106.26 77.7691 107.104 77.7691H108.338V75.2356C108.338 74.3262 109.118 73.5467 110.027 73.5467C110.969 73.5467 111.749 74.3262 111.749 75.2356V77.7691H114.12C114.964 77.7691 115.549 78.3212 115.549 79.1332C115.549 79.9777 114.964 80.5299 114.12 80.5299H111.749V90.4363C111.749 91.4107 112.139 91.8654 112.886 91.8654C113.308 91.8654 113.795 91.7355 114.152 91.703Z" fill="#1B3F71"/>
</svg>
